<svg width="200" height="90" viewBox="0 0 200 90" fill="none" xmlns="http://www.w3.org/2000/svg">
<path d="M62.7744 31.7266H73.2412V34.1523H65.5708V38.6895H72.1968V41.104H65.5708V47H62.7744V31.7266ZM74.3418 41.2275C74.3418 40.3815 74.4878 39.5879 74.7798 38.8467C75.0793 38.098 75.4985 37.4466 76.0376 36.8926C76.5841 36.3385 77.2355 35.9006 77.9917 35.5786C78.7554 35.2567 79.6014 35.0957 80.5298 35.0957C80.964 35.0957 81.3758 35.1406 81.7651 35.2305C82.1619 35.3128 82.5326 35.4289 82.877 35.5786C83.2214 35.7209 83.5358 35.8931 83.8203 36.0952C84.1123 36.2899 84.3706 36.4958 84.5952 36.7129L84.7524 35.4438H87.0884V47H84.7524L84.5952 45.731C84.3631 45.9556 84.1011 46.1652 83.8091 46.3599C83.5171 46.5545 83.1989 46.7267 82.8545 46.8765C82.5176 47.0187 82.1507 47.131 81.7539 47.2134C81.3646 47.3032 80.9528 47.3481 80.5186 47.3481C79.5977 47.3481 78.7554 47.1909 77.9917 46.8765C77.2355 46.5545 76.5879 46.1165 76.0488 45.5625C75.5098 45.0085 75.0905 44.3608 74.791 43.6196C74.4915 42.8709 74.3418 42.0736 74.3418 41.2275ZM77.0708 41.2163C77.0708 41.7703 77.1681 42.2795 77.3628 42.7437C77.5575 43.2078 77.8232 43.6084 78.1602 43.9453C78.4971 44.2747 78.8901 44.533 79.3394 44.7202C79.7886 44.8999 80.2715 44.9897 80.7881 44.9897C81.2972 44.9897 81.7764 44.8999 82.2256 44.7202C82.6748 44.533 83.0641 44.2747 83.3936 43.9453C83.7305 43.6084 83.9963 43.2116 84.1909 42.7549C84.3856 42.2907 84.4829 41.7778 84.4829 41.2163C84.4829 40.6698 84.3856 40.1681 84.1909 39.7114C83.9963 39.2472 83.7305 38.8504 83.3936 38.521C83.0566 38.1916 82.6636 37.9333 82.2144 37.7461C81.7651 37.5589 81.2822 37.4653 80.7656 37.4653C80.249 37.4653 79.7661 37.5589 79.3169 37.7461C78.8677 37.9258 78.4746 38.1841 78.1377 38.521C77.8083 38.8504 77.5462 39.2472 77.3516 39.7114C77.1644 40.1681 77.0708 40.6698 77.0708 41.2163ZM90.8281 31.1763H93.5571V41.1826L98.3188 35.4438H101.52L97.4653 40.2954L101.879 47H98.6108L95.5 42.0923L93.5571 44.3271V47H90.8281V31.1763ZM105.36 32.1646L107.359 32.1533V35.4438H111.043V37.8022H107.348V42.5303C107.348 42.9945 107.401 43.38 107.505 43.687C107.618 43.9865 107.764 44.2261 107.943 44.4058C108.131 44.578 108.348 44.7015 108.595 44.7764C108.842 44.8438 109.104 44.8774 109.381 44.8774H111.357L111.335 47.1235H109.123C108.501 47.1235 107.917 47.0599 107.371 46.9326C106.824 46.8053 106.349 46.5732 105.944 46.2363C105.54 45.8919 105.218 45.424 104.979 44.8325C104.746 44.241 104.63 43.4811 104.63 42.5527V37.8022H102.699V35.6909L104.563 35.1743L105.36 32.1646ZM113.514 41.2275C113.514 40.3815 113.66 39.5879 113.952 38.8467C114.251 38.098 114.67 37.4466 115.209 36.8926C115.756 36.3385 116.407 35.9006 117.164 35.5786C117.927 35.2567 118.773 35.0957 119.702 35.0957C120.136 35.0957 120.548 35.1406 120.937 35.2305C121.334 35.3128 121.704 35.4289 122.049 35.5786C122.393 35.7209 122.708 35.8931 122.992 36.0952C123.284 36.2899 123.542 36.4958 123.767 36.7129L123.924 35.4438H126.26V47H123.924L123.767 45.731C123.535 45.9556 123.273 46.1652 122.981 46.3599C122.689 46.5545 122.371 46.7267 122.026 46.8765C121.689 47.0187 121.323 47.131 120.926 47.2134C120.536 47.3032 120.125 47.3481 119.69 47.3481C118.77 47.3481 117.927 47.1909 117.164 46.8765C116.407 46.5545 115.76 46.1165 115.221 45.5625C114.682 45.0085 114.262 44.3608 113.963 43.6196C113.663 42.8709 113.514 42.0736 113.514 41.2275ZM116.243 41.2163C116.243 41.7703 116.34 42.2795 116.535 42.7437C116.729 43.2078 116.995 43.6084 117.332 43.9453C117.669 44.2747 118.062 44.533 118.511 44.7202C118.96 44.8999 119.443 44.9897 119.96 44.9897C120.469 44.9897 120.948 44.8999 121.397 44.7202C121.847 44.533 122.236 44.2747 122.565 43.9453C122.902 43.6084 123.168 43.2116 123.363 42.7549C123.557 42.2907 123.655 41.7778 123.655 41.2163C123.655 40.6698 123.557 40.1681 123.363 39.7114C123.168 39.2472 122.902 38.8504 122.565 38.521C122.229 38.1916 121.835 37.9333 121.386 37.7461C120.937 37.5589 120.454 37.4653 119.938 37.4653C119.421 37.4653 118.938 37.5589 118.489 37.7461C118.04 37.9258 117.646 38.1841 117.31 38.521C116.98 38.8504 116.718 39.2472 116.523 39.7114C116.336 40.1681 116.243 40.6698 116.243 41.2163Z" fill="white"/>
<path d="M129.978 31.7266H132.774V47H129.978V31.7266ZM136.356 31.1763H139.085V41.1826L143.847 35.4438H147.048L142.994 40.2954L147.407 47H144.139L141.028 42.0923L139.085 44.3271V47H136.356V31.1763ZM149.519 31.1763H152.248V47H149.519V31.1763ZM155.875 35.4438H158.626V47H155.875V35.4438ZM155.572 32.1758C155.572 31.9661 155.613 31.7715 155.695 31.5918C155.778 31.4046 155.89 31.2437 156.032 31.1089C156.182 30.9666 156.362 30.8543 156.571 30.772C156.781 30.6896 157.013 30.6484 157.268 30.6484C157.522 30.6484 157.754 30.6896 157.964 30.772C158.181 30.8543 158.364 30.9666 158.514 31.1089C158.664 31.2437 158.78 31.4046 158.862 31.5918C158.945 31.7715 158.986 31.9661 158.986 32.1758C158.986 32.3854 158.945 32.5838 158.862 32.771C158.78 32.9507 158.664 33.1117 158.514 33.2539C158.364 33.3887 158.181 33.4972 157.964 33.5796C157.754 33.6545 157.522 33.6919 157.268 33.6919C157.013 33.6919 156.781 33.6545 156.571 33.5796C156.369 33.4972 156.193 33.3887 156.043 33.2539C155.894 33.1117 155.778 32.9507 155.695 32.771C155.613 32.5838 155.572 32.3854 155.572 32.1758ZM181.48 47H178.74V40.7783C178.74 39.6328 178.534 38.7943 178.123 38.2627C177.711 37.7311 177.127 37.4653 176.371 37.4653C175.936 37.4653 175.54 37.5402 175.18 37.6899C174.821 37.8322 174.506 38.0381 174.237 38.3076C173.975 38.5771 173.769 38.9103 173.619 39.3071C173.469 39.6965 173.387 40.1382 173.372 40.6323V47H170.621V40.7783C170.621 39.6328 170.415 38.7943 170.003 38.2627C169.591 37.7311 169.007 37.4653 168.251 37.4653C167.809 37.4653 167.401 37.5402 167.027 37.6899C166.66 37.8397 166.346 38.0605 166.083 38.3525C165.821 38.637 165.616 38.9889 165.466 39.4082C165.324 39.82 165.252 40.2879 165.252 40.812V47H162.523V35.4438H164.747L164.938 36.5107C165.155 36.3161 165.395 36.1326 165.657 35.9604C165.926 35.7882 166.218 35.6385 166.533 35.5112C166.847 35.384 167.18 35.2829 167.532 35.208C167.892 35.1331 168.266 35.0957 168.655 35.0957C169.464 35.0957 170.179 35.2492 170.8 35.5562C171.429 35.8631 171.95 36.2974 172.361 36.8589C172.586 36.6193 172.844 36.3947 173.136 36.1851C173.436 35.9679 173.765 35.7808 174.125 35.6235C174.484 35.4588 174.877 35.3315 175.304 35.2417C175.73 35.1444 176.191 35.0957 176.685 35.0957C177.449 35.0957 178.126 35.223 178.718 35.4775C179.317 35.7246 179.818 36.0877 180.223 36.5669C180.634 37.0386 180.945 37.6226 181.155 38.3188C181.372 39.0151 181.48 39.8088 181.48 40.6997V47Z" fill="#BABABA"/>
<path d="M65.9756 58.7354H62.9141L62.3916 60H61.1074L63.8711 53.3545H65.0234L67.7871 60H66.498L65.9756 58.7354ZM63.3438 57.6904H65.541L64.4863 55.127L64.4473 54.9561H64.4424L64.4033 55.127L63.3438 57.6904ZM68.6855 53.1201H69.8721V57.4707L71.9424 54.9756H73.334L71.5713 57.085L73.4902 60H72.0693L70.7168 57.8662L69.8721 58.8379V60H68.6855V53.1201ZM75.1162 58.4863C75.1195 58.5807 75.1471 58.6702 75.1992 58.7549C75.2546 58.8395 75.3278 58.9128 75.4189 58.9746C75.5101 59.0365 75.6159 59.0853 75.7363 59.1211C75.8568 59.1569 75.987 59.1748 76.127 59.1748C76.5046 59.1748 76.7829 59.1195 76.9619 59.0088C77.141 58.8949 77.2305 58.7419 77.2305 58.5498C77.2305 58.4424 77.1979 58.3529 77.1328 58.2812C77.0677 58.2096 76.9733 58.1494 76.8496 58.1006C76.7259 58.0518 76.5745 58.0094 76.3955 57.9736C76.2165 57.9346 76.013 57.8939 75.7852 57.8516C75.6712 57.8353 75.5508 57.8141 75.4238 57.7881C75.3001 57.762 75.1764 57.7279 75.0527 57.6855C74.929 57.64 74.8102 57.583 74.6963 57.5146C74.5856 57.4463 74.4863 57.3633 74.3984 57.2656C74.3138 57.1647 74.2454 57.0459 74.1934 56.9092C74.1413 56.7692 74.1152 56.6048 74.1152 56.416C74.1152 56.1816 74.1576 55.9684 74.2422 55.7764C74.3268 55.5811 74.4587 55.4134 74.6377 55.2734C74.8167 55.1302 75.0446 55.0195 75.3213 54.9414C75.598 54.8633 75.9284 54.8242 76.3125 54.8242C76.6152 54.8242 76.887 54.8633 77.1279 54.9414C77.3721 55.0195 77.5788 55.1286 77.748 55.2686C77.9173 55.4085 78.0475 55.5762 78.1387 55.7715C78.2298 55.9668 78.2754 56.18 78.2754 56.4111L77.0889 56.4062C77.0758 56.2305 76.9928 56.0856 76.8398 55.9717C76.6868 55.8577 76.4834 55.8008 76.2295 55.8008C76.0635 55.8008 75.9219 55.8187 75.8047 55.8545C75.6875 55.887 75.5915 55.931 75.5166 55.9863C75.4417 56.0417 75.3864 56.1068 75.3506 56.1816C75.3148 56.2533 75.2969 56.3281 75.2969 56.4062C75.2969 56.4974 75.3213 56.5739 75.3701 56.6357C75.4189 56.6976 75.4922 56.7497 75.5898 56.792C75.6875 56.8343 75.8112 56.8701 75.9609 56.8994C76.1107 56.9287 76.2865 56.9548 76.4883 56.9775C76.7324 57.0166 76.9733 57.0654 77.2109 57.124C77.4486 57.1794 77.6602 57.2607 77.8457 57.3682C78.0312 57.4756 78.181 57.6172 78.2949 57.793C78.4089 57.9688 78.4658 58.195 78.4658 58.4717C78.4658 58.7549 78.4089 59.0023 78.2949 59.2139C78.181 59.4222 78.0199 59.5964 77.8115 59.7363C77.6032 59.8763 77.3525 59.9805 77.0596 60.0488C76.7666 60.1204 76.4411 60.1562 76.083 60.1562C75.7249 60.1562 75.4124 60.1058 75.1455 60.0049C74.8786 59.9072 74.6556 59.7786 74.4766 59.6191C74.3008 59.4596 74.1689 59.2806 74.0811 59.082C73.9932 58.8835 73.9492 58.6833 73.9492 58.4814L75.1162 58.4863ZM79.5645 54.9756H80.7607V60H79.5645V54.9756ZM79.4326 53.5547C79.4326 53.4635 79.4505 53.3789 79.4863 53.3008C79.5221 53.2194 79.571 53.1494 79.6328 53.0908C79.6979 53.029 79.776 52.9801 79.8672 52.9443C79.9583 52.9085 80.0592 52.8906 80.1699 52.8906C80.2806 52.8906 80.3815 52.9085 80.4727 52.9443C80.5671 52.9801 80.6468 53.029 80.7119 53.0908C80.777 53.1494 80.8275 53.2194 80.8633 53.3008C80.8991 53.3789 80.917 53.4635 80.917 53.5547C80.917 53.6458 80.8991 53.7321 80.8633 53.8135C80.8275 53.8916 80.777 53.9616 80.7119 54.0234C80.6468 54.082 80.5671 54.1292 80.4727 54.165C80.3815 54.1976 80.2806 54.2139 80.1699 54.2139C80.0592 54.2139 79.9583 54.1976 79.8672 54.165C79.7793 54.1292 79.7028 54.082 79.6377 54.0234C79.5726 53.9616 79.5221 53.8916 79.4863 53.8135C79.4505 53.7321 79.4326 53.6458 79.4326 53.5547ZM90.6045 60H89.5596L85.9463 55.4639V60H84.7305V53.3594H85.7754L89.3936 57.8955V53.3594H90.6045V60ZM96.9229 54.9756L93.9785 61.7236H92.6992L93.5977 59.79L91.5127 54.9756H92.8262L94.1641 58.1689L94.2227 58.4229L95.6484 54.9805L96.9229 54.9756ZM97.3965 57.4902C97.3965 57.1224 97.46 56.7773 97.5869 56.4551C97.7171 56.1296 97.8994 55.8464 98.1338 55.6055C98.3714 55.3646 98.6546 55.1742 98.9834 55.0342C99.3154 54.8942 99.6833 54.8242 100.087 54.8242C100.276 54.8242 100.455 54.8438 100.624 54.8828C100.797 54.9186 100.958 54.9691 101.107 55.0342C101.257 55.096 101.394 55.1709 101.518 55.2588C101.645 55.3434 101.757 55.4329 101.854 55.5273L101.923 54.9756H102.938V60H101.923L101.854 59.4482C101.754 59.5459 101.64 59.637 101.513 59.7217C101.386 59.8063 101.247 59.8812 101.098 59.9463C100.951 60.0081 100.792 60.057 100.619 60.0928C100.45 60.1318 100.271 60.1514 100.082 60.1514C99.6816 60.1514 99.3154 60.083 98.9834 59.9463C98.6546 59.8063 98.373 59.6159 98.1387 59.375C97.9043 59.1341 97.722 58.8525 97.5918 58.5303C97.4616 58.2048 97.3965 57.8581 97.3965 57.4902ZM98.583 57.4854C98.583 57.7262 98.6253 57.9476 98.71 58.1494C98.7946 58.3512 98.9102 58.5254 99.0566 58.6719C99.2031 58.8151 99.374 58.9274 99.5693 59.0088C99.7646 59.0869 99.9746 59.126 100.199 59.126C100.421 59.126 100.629 59.0869 100.824 59.0088C101.02 58.9274 101.189 58.8151 101.332 58.6719C101.479 58.5254 101.594 58.3529 101.679 58.1543C101.763 57.9525 101.806 57.7295 101.806 57.4854C101.806 57.2477 101.763 57.0296 101.679 56.8311C101.594 56.6292 101.479 56.4567 101.332 56.3135C101.186 56.1702 101.015 56.0579 100.819 55.9766C100.624 55.8952 100.414 55.8545 100.189 55.8545C99.9648 55.8545 99.7549 55.8952 99.5596 55.9766C99.3643 56.0547 99.1934 56.167 99.0469 56.3135C98.9036 56.4567 98.7897 56.6292 98.7051 56.8311C98.6237 57.0296 98.583 57.2477 98.583 57.4854ZM105.16 53.5498L106.029 53.5449V54.9756H107.631V56.001H106.024V58.0566C106.024 58.2585 106.047 58.4261 106.093 58.5596C106.142 58.6898 106.205 58.7939 106.283 58.8721C106.365 58.9469 106.459 59.0007 106.566 59.0332C106.674 59.0625 106.788 59.0771 106.908 59.0771H107.768L107.758 60.0537H106.796C106.526 60.0537 106.272 60.026 106.034 59.9707C105.797 59.9154 105.59 59.8145 105.414 59.668C105.238 59.5182 105.098 59.3148 104.994 59.0576C104.893 58.8005 104.843 58.4701 104.843 58.0664V56.001H104.003V55.083L104.813 54.8584L105.16 53.5498ZM108.705 57.4902C108.705 57.1224 108.769 56.7773 108.896 56.4551C109.026 56.1296 109.208 55.8464 109.442 55.6055C109.68 55.3646 109.963 55.1742 110.292 55.0342C110.624 54.8942 110.992 54.8242 111.396 54.8242C111.584 54.8242 111.763 54.8438 111.933 54.8828C112.105 54.9186 112.266 54.9691 112.416 55.0342C112.566 55.096 112.702 55.1709 112.826 55.2588C112.953 55.3434 113.065 55.4329 113.163 55.5273L113.231 54.9756H114.247V60H113.231L113.163 59.4482C113.062 59.5459 112.948 59.637 112.821 59.7217C112.694 59.8063 112.556 59.8812 112.406 59.9463C112.26 60.0081 112.1 60.057 111.928 60.0928C111.758 60.1318 111.579 60.1514 111.391 60.1514C110.99 60.1514 110.624 60.083 110.292 59.9463C109.963 59.8063 109.682 59.6159 109.447 59.375C109.213 59.1341 109.031 58.8525 108.9 58.5303C108.77 58.2048 108.705 57.8581 108.705 57.4902ZM109.892 57.4854C109.892 57.7262 109.934 57.9476 110.019 58.1494C110.103 58.3512 110.219 58.5254 110.365 58.6719C110.512 58.8151 110.683 58.9274 110.878 59.0088C111.073 59.0869 111.283 59.126 111.508 59.126C111.729 59.126 111.938 59.0869 112.133 59.0088C112.328 58.9274 112.497 58.8151 112.641 58.6719C112.787 58.5254 112.903 58.3529 112.987 58.1543C113.072 57.9525 113.114 57.7295 113.114 57.4854C113.114 57.2477 113.072 57.0296 112.987 56.8311C112.903 56.6292 112.787 56.4567 112.641 56.3135C112.494 56.1702 112.323 56.0579 112.128 55.9766C111.933 55.8952 111.723 55.8545 111.498 55.8545C111.273 55.8545 111.063 55.8952 110.868 55.9766C110.673 56.0547 110.502 56.167 110.355 56.3135C110.212 56.4567 110.098 56.6292 110.014 56.8311C109.932 57.0296 109.892 57.2477 109.892 57.4854ZM119.364 57.832V60H118.148V53.3594H120.946C121.282 53.3594 121.589 53.4163 121.869 53.5303C122.152 53.641 122.396 53.7956 122.602 53.9941C122.807 54.1927 122.966 54.4303 123.08 54.707C123.194 54.9805 123.251 55.2783 123.251 55.6006C123.251 55.9294 123.194 56.2305 123.08 56.5039C122.969 56.7741 122.812 57.0085 122.606 57.207C122.405 57.4056 122.164 57.5602 121.884 57.6709C121.604 57.7783 121.298 57.832 120.966 57.832H119.364ZM120.902 56.7822C121.062 56.7822 121.21 56.7529 121.347 56.6943C121.487 56.6325 121.607 56.5495 121.708 56.4453C121.809 56.3379 121.889 56.2126 121.947 56.0693C122.006 55.9261 122.035 55.7715 122.035 55.6055C122.035 55.4395 122.006 55.2848 121.947 55.1416C121.889 54.9951 121.807 54.8682 121.703 54.7607C121.602 54.6533 121.482 54.5687 121.342 54.5068C121.205 54.4417 121.057 54.4092 120.897 54.4092H119.364V56.7822H120.902ZM123.656 57.4902C123.656 57.1224 123.72 56.7773 123.847 56.4551C123.977 56.1296 124.159 55.8464 124.394 55.6055C124.631 55.3646 124.914 55.1742 125.243 55.0342C125.575 54.8942 125.943 54.8242 126.347 54.8242C126.535 54.8242 126.715 54.8438 126.884 54.8828C127.056 54.9186 127.217 54.9691 127.367 55.0342C127.517 55.096 127.654 55.1709 127.777 55.2588C127.904 55.3434 128.017 55.4329 128.114 55.5273L128.183 54.9756H129.198V60H128.183L128.114 59.4482C128.013 59.5459 127.899 59.637 127.772 59.7217C127.646 59.8063 127.507 59.8812 127.357 59.9463C127.211 60.0081 127.051 60.057 126.879 60.0928C126.71 60.1318 126.531 60.1514 126.342 60.1514C125.941 60.1514 125.575 60.083 125.243 59.9463C124.914 59.8063 124.633 59.6159 124.398 59.375C124.164 59.1341 123.982 58.8525 123.852 58.5303C123.721 58.2048 123.656 57.8581 123.656 57.4902ZM124.843 57.4854C124.843 57.7262 124.885 57.9476 124.97 58.1494C125.054 58.3512 125.17 58.5254 125.316 58.6719C125.463 58.8151 125.634 58.9274 125.829 59.0088C126.024 59.0869 126.234 59.126 126.459 59.126C126.68 59.126 126.889 59.0869 127.084 59.0088C127.279 58.9274 127.449 58.8151 127.592 58.6719C127.738 58.5254 127.854 58.3529 127.938 58.1543C128.023 57.9525 128.065 57.7295 128.065 57.4854C128.065 57.2477 128.023 57.0296 127.938 56.8311C127.854 56.6292 127.738 56.4567 127.592 56.3135C127.445 56.1702 127.274 56.0579 127.079 55.9766C126.884 55.8952 126.674 55.8545 126.449 55.8545C126.225 55.8545 126.015 55.8952 125.819 55.9766C125.624 56.0547 125.453 56.167 125.307 56.3135C125.163 56.4567 125.049 56.6292 124.965 56.8311C124.883 57.0296 124.843 57.2477 124.843 57.4854ZM135.883 60H134.687V57.2949C134.687 57.0215 134.657 56.7936 134.599 56.6113C134.54 56.4258 134.454 56.2777 134.34 56.167C134.229 56.0531 134.092 55.9733 133.93 55.9277C133.77 55.8789 133.586 55.8545 133.378 55.8545C133.186 55.8545 133.005 55.8887 132.836 55.957C132.67 56.0254 132.525 56.123 132.401 56.25C132.281 56.377 132.185 56.5299 132.113 56.709C132.045 56.8848 132.011 57.0801 132.011 57.2949V60.0049H130.824V53.1201H132.006L132.001 55.4346C132.196 55.262 132.432 55.1172 132.709 55C132.986 54.8828 133.285 54.8242 133.607 54.8242C133.998 54.8242 134.337 54.8779 134.623 54.9854C134.91 55.0928 135.146 55.2507 135.331 55.459C135.52 55.6673 135.658 55.9245 135.746 56.2305C135.837 56.5332 135.883 56.8815 135.883 57.2754V60ZM137.055 57.4902C137.055 57.1224 137.118 56.7773 137.245 56.4551C137.375 56.1296 137.558 55.8464 137.792 55.6055C138.03 55.3646 138.313 55.1742 138.642 55.0342C138.974 54.8942 139.341 54.8242 139.745 54.8242C139.934 54.8242 140.113 54.8438 140.282 54.8828C140.455 54.9186 140.616 54.9691 140.766 55.0342C140.915 55.096 141.052 55.1709 141.176 55.2588C141.303 55.3434 141.415 55.4329 141.513 55.5273L141.581 54.9756H142.597V60H141.581L141.513 59.4482C141.412 59.5459 141.298 59.637 141.171 59.7217C141.044 59.8063 140.906 59.8812 140.756 59.9463C140.609 60.0081 140.45 60.057 140.277 60.0928C140.108 60.1318 139.929 60.1514 139.74 60.1514C139.34 60.1514 138.974 60.083 138.642 59.9463C138.313 59.8063 138.031 59.6159 137.797 59.375C137.562 59.1341 137.38 58.8525 137.25 58.5303C137.12 58.2048 137.055 57.8581 137.055 57.4902ZM138.241 57.4854C138.241 57.7262 138.284 57.9476 138.368 58.1494C138.453 58.3512 138.568 58.5254 138.715 58.6719C138.861 58.8151 139.032 58.9274 139.228 59.0088C139.423 59.0869 139.633 59.126 139.857 59.126C140.079 59.126 140.287 59.0869 140.482 59.0088C140.678 58.9274 140.847 58.8151 140.99 58.6719C141.137 58.5254 141.252 58.3529 141.337 58.1543C141.422 57.9525 141.464 57.7295 141.464 57.4854C141.464 57.2477 141.422 57.0296 141.337 56.8311C141.252 56.6292 141.137 56.4567 140.99 56.3135C140.844 56.1702 140.673 56.0579 140.478 55.9766C140.282 55.8952 140.072 55.8545 139.848 55.8545C139.623 55.8545 139.413 55.8952 139.218 55.9766C139.022 56.0547 138.852 56.167 138.705 56.3135C138.562 56.4567 138.448 56.6292 138.363 56.8311C138.282 57.0296 138.241 57.2477 138.241 57.4854ZM152.465 60H151.273V57.2949C151.273 56.7969 151.184 56.4323 151.005 56.2012C150.826 55.9701 150.572 55.8545 150.243 55.8545C150.054 55.8545 149.882 55.887 149.726 55.9521C149.569 56.014 149.433 56.1035 149.315 56.2207C149.201 56.3379 149.112 56.4827 149.047 56.6553C148.982 56.8245 148.946 57.0166 148.939 57.2314V60H147.743V57.2949C147.743 56.7969 147.654 56.4323 147.475 56.2012C147.296 55.9701 147.042 55.8545 146.713 55.8545C146.521 55.8545 146.343 55.887 146.181 55.9521C146.021 56.0173 145.884 56.1133 145.771 56.2402C145.657 56.3639 145.567 56.5169 145.502 56.6992C145.44 56.8783 145.409 57.0817 145.409 57.3096V60H144.223V54.9756H145.189L145.272 55.4395C145.367 55.3548 145.471 55.2751 145.585 55.2002C145.702 55.1253 145.829 55.0602 145.966 55.0049C146.103 54.9495 146.247 54.9056 146.4 54.873C146.557 54.8405 146.719 54.8242 146.889 54.8242C147.24 54.8242 147.551 54.891 147.821 55.0244C148.095 55.1579 148.321 55.3467 148.5 55.5908C148.598 55.4867 148.71 55.389 148.837 55.2979C148.967 55.2035 149.11 55.1221 149.267 55.0537C149.423 54.9821 149.594 54.9268 149.779 54.8877C149.965 54.8454 150.165 54.8242 150.38 54.8242C150.712 54.8242 151.007 54.8796 151.264 54.9902C151.524 55.0977 151.742 55.2555 151.918 55.4639C152.097 55.6689 152.232 55.9229 152.323 56.2256C152.418 56.5283 152.465 56.8734 152.465 57.2607V60ZM153.9 54.9756H155.097V60H153.9V54.9756ZM153.769 53.5547C153.769 53.4635 153.786 53.3789 153.822 53.3008C153.858 53.2194 153.907 53.1494 153.969 53.0908C154.034 53.029 154.112 52.9801 154.203 52.9443C154.294 52.9085 154.395 52.8906 154.506 52.8906C154.617 52.8906 154.717 52.9085 154.809 52.9443C154.903 52.9801 154.983 53.029 155.048 53.0908C155.113 53.1494 155.163 53.2194 155.199 53.3008C155.235 53.3789 155.253 53.4635 155.253 53.5547C155.253 53.6458 155.235 53.7321 155.199 53.8135C155.163 53.8916 155.113 53.9616 155.048 54.0234C154.983 54.082 154.903 54.1292 154.809 54.165C154.717 54.1976 154.617 54.2139 154.506 54.2139C154.395 54.2139 154.294 54.1976 154.203 54.165C154.115 54.1292 154.039 54.082 153.974 54.0234C153.909 53.9616 153.858 53.8916 153.822 53.8135C153.786 53.7321 153.769 53.6458 153.769 53.5547ZM159.066 53.3594H160.282V60H159.066V53.3594ZM161.84 53.1201H163.026V57.4707L165.097 54.9756H166.488L164.726 57.085L166.645 60H165.224L163.871 57.8662L163.026 58.8379V60H161.84V53.1201ZM167.562 53.1201H168.749V60H167.562V53.1201ZM170.326 54.9756H171.522V60H170.326V54.9756ZM170.194 53.5547C170.194 53.4635 170.212 53.3789 170.248 53.3008C170.284 53.2194 170.333 53.1494 170.395 53.0908C170.46 53.029 170.538 52.9801 170.629 52.9443C170.72 52.9085 170.821 52.8906 170.932 52.8906C171.042 52.8906 171.143 52.9085 171.234 52.9443C171.329 52.9801 171.409 53.029 171.474 53.0908C171.539 53.1494 171.589 53.2194 171.625 53.3008C171.661 53.3789 171.679 53.4635 171.679 53.5547C171.679 53.6458 171.661 53.7321 171.625 53.8135C171.589 53.8916 171.539 53.9616 171.474 54.0234C171.409 54.082 171.329 54.1292 171.234 54.165C171.143 54.1976 171.042 54.2139 170.932 54.2139C170.821 54.2139 170.72 54.1976 170.629 54.165C170.541 54.1292 170.465 54.082 170.399 54.0234C170.334 53.9616 170.284 53.8916 170.248 53.8135C170.212 53.7321 170.194 53.6458 170.194 53.5547ZM181.459 60H180.268V57.2949C180.268 56.7969 180.178 56.4323 179.999 56.2012C179.82 55.9701 179.566 55.8545 179.237 55.8545C179.049 55.8545 178.876 55.887 178.72 55.9521C178.563 56.014 178.427 56.1035 178.31 56.2207C178.196 56.3379 178.106 56.4827 178.041 56.6553C177.976 56.8245 177.94 57.0166 177.934 57.2314V60H176.737V57.2949C176.737 56.7969 176.648 56.4323 176.469 56.2012C176.29 55.9701 176.036 55.8545 175.707 55.8545C175.515 55.8545 175.338 55.887 175.175 55.9521C175.015 56.0173 174.879 56.1133 174.765 56.2402C174.651 56.3639 174.561 56.5169 174.496 56.6992C174.434 56.8783 174.403 57.0817 174.403 57.3096V60H173.217V54.9756H174.184L174.267 55.4395C174.361 55.3548 174.465 55.2751 174.579 55.2002C174.696 55.1253 174.823 55.0602 174.96 55.0049C175.097 54.9495 175.242 54.9056 175.395 54.873C175.551 54.8405 175.714 54.8242 175.883 54.8242C176.234 54.8242 176.545 54.891 176.815 55.0244C177.089 55.1579 177.315 55.3467 177.494 55.5908C177.592 55.4867 177.704 55.389 177.831 55.2979C177.961 55.2035 178.104 55.1221 178.261 55.0537C178.417 54.9821 178.588 54.9268 178.773 54.8877C178.959 54.8454 179.159 54.8242 179.374 54.8242C179.706 54.8242 180.001 54.8796 180.258 54.9902C180.518 55.0977 180.736 55.2555 180.912 55.4639C181.091 55.6689 181.226 55.9229 181.317 56.2256C181.412 56.5283 181.459 56.8734 181.459 57.2607V60Z" fill="#D6D6D6"/>
<mask id="mask0_203_238" style="mask-type:luminance" maskUnits="userSpaceOnUse" x="16" y="27" width="36" height="37">
<path d="M32.8948 63.9971C25.4772 64.0621 18.9272 59.2472 16.7366 52.155C14.5677 45.0627 17.3005 37.4066 23.4601 33.2857C18.2331 37.3198 16.1727 44.2169 18.2982 50.4632C20.4237 56.7096 26.3014 60.8956 32.8731 60.8956C36.9506 60.8956 40.8763 59.2689 43.7609 56.3843C46.6455 53.4997 48.2721 49.574 48.2721 45.4965C48.0336 39.2284 44.52 33.5459 39.011 30.5746C33.5021 27.5815 26.8219 27.7333 21.4431 30.965C27.0171 26.5838 34.5865 25.7597 40.963 28.8612C47.3395 31.9627 51.3736 38.4259 51.3736 45.5182C51.3736 50.4199 49.4217 55.1263 45.9514 58.5965C42.5246 62.0668 37.8181 63.9971 32.8948 63.9971Z" fill="white"/>
</mask>
<g mask="url(#mask0_203_238)">
<path d="M51.3955 25.7595H14.5679V64.062H51.3955V25.7595Z" fill="url(#paint0_linear_203_238)"/>
</g>
<path fill-rule="evenodd" clip-rule="evenodd" d="M42.6329 57.4465C40.7026 59.0515 38.447 60.2444 35.9527 60.9384C30.1835 62.5651 24.0239 61.2204 19.4692 57.4248C22.5924 61.5023 27.5375 64.0182 32.8946 63.9749C37.7963 63.9749 42.5028 62.0229 45.973 58.5527C49.4432 55.0824 51.3952 50.376 51.3952 45.4743C51.3952 39.4014 48.4238 33.784 43.5872 30.3572C48.2937 34.8685 50.224 41.5486 48.6407 47.8601C47.8382 51.0483 46.2333 53.8896 43.9993 56.1452C43.9342 56.2103 43.8475 56.297 43.7824 56.3621C43.4354 56.7742 43.045 57.1212 42.6329 57.4465Z" fill="#008CFF"/>
<path fill-rule="evenodd" clip-rule="evenodd" d="M23.9372 54.7351C26.952 57.6414 31.1813 58.9211 35.3022 58.1403C39.4231 57.3595 42.8933 54.6267 44.6284 50.8094C47.3178 44.8667 45.1272 37.8395 39.5098 34.4778C33.9141 31.116 26.67 32.5041 22.701 37.666C18.7319 42.8497 19.2525 50.1805 23.9372 54.7351Z" fill="url(#paint1_linear_203_238)"/>
<path d="M39.552 42.227C38.8962 41.4476 37.9178 40.9476 36.8212 40.9476C36.1224 40.9476 35.472 41.1465 34.9237 41.4959C34.1496 39.8403 32.4725 38.6953 30.5266 38.6953C27.8496 38.6953 25.6779 40.867 25.6779 43.544C25.6779 43.8343 25.7048 44.1192 25.7532 44.3987C23.9201 44.5062 22.4634 46.0274 22.4634 47.8874C22.4634 49.0162 23.0009 50.016 23.8287 50.6557C24.5974 51.2578 25.5489 51.4298 26.1832 51.5104C28.8226 51.8383 32.7466 44.3396 40.2132 44.3933H40.1057C40.2562 44.3933 40.4551 44.1783 40.4712 44.3073C40.3314 43.0763 39.552 42.2324 39.552 42.227Z" fill="white"/>
<path d="M34.0796 51.6072C39.6271 51.6072 42.288 48.7797 43.3846 43.7429C41.9923 43.4419 41.444 43.4473 40.2184 43.4365C31.5532 43.372 28.4945 49.8494 27.4248 51.5965C27.5861 51.6072 34.0796 51.6072 34.0796 51.6072Z" fill="url(#paint2_linear_203_238)"/>
<path d="M27.5162 51.5902C25.7907 51.6064 24.6672 51.1978 23.8232 50.5797C23.8232 50.5797 28.2741 42.753 40.2184 43.441L27.5162 51.5902Z" fill="url(#paint3_linear_203_238)"/>
<path d="M27.4248 51.5965C27.4248 51.5965 36.4771 50.8278 43.3846 43.743C43.3846 43.743 34.4075 40.937 27.4248 51.5965Z" fill="url(#paint4_linear_203_238)"/>
<defs>
<linearGradient id="paint0_linear_203_238" x1="48.2036" y1="58.9622" x2="15.5272" y2="28.7628" gradientUnits="userSpaceOnUse">
<stop stop-color="#002BFF"/>
<stop offset="1" stop-color="#00223E"/>
</linearGradient>
<linearGradient id="paint1_linear_203_238" x1="8.79335" y1="27.855" x2="3.81169" y2="49.0321" gradientUnits="userSpaceOnUse">
<stop stop-color="#00269C"/>
<stop offset="0.45348" stop-color="#008CFF"/>
<stop offset="1" stop-color="#00ECFD" stop-opacity="0.65"/>
</linearGradient>
<linearGradient id="paint2_linear_203_238" x1="35.4047" y1="43.436" x2="35.4047" y2="51.6072" gradientUnits="userSpaceOnUse">
<stop stop-color="#D2DBFF"/>
<stop offset="0.45" stop-color="#00A7E5"/>
<stop offset="1" stop-color="#0027BC"/>
</linearGradient>
<linearGradient id="paint3_linear_203_238" x1="32.0208" y1="43.3982" x2="32.0208" y2="51.5907" gradientUnits="userSpaceOnUse">
<stop stop-color="#D2DBFF"/>
<stop offset="0.45" stop-color="#00A7E5"/>
<stop offset="1" stop-color="#0027BC"/>
</linearGradient>
<linearGradient id="paint4_linear_203_238" x1="37.8827" y1="43.0696" x2="33.4378" y2="48.5403" gradientUnits="userSpaceOnUse">
<stop stop-color="#0027AB"/>
<stop offset="1" stop-color="#001045"/>
</linearGradient>
</defs>
</svg>
