<svg width="30" height="30" viewBox="0 0 30 30" fill="none" xmlns="http://www.w3.org/2000/svg">
<mask id="mask0_35_563" style="mask-type:luminance" maskUnits="userSpaceOnUse" x="3" y="3" width="23" height="25">
<path d="M13.9783 27.0408C9.15831 27.0831 4.90208 23.9543 3.47864 19.3458C2.06929 14.7372 3.84507 9.76222 7.84761 7.08446C4.45109 9.70584 3.11221 14.1876 4.49337 18.2465C5.87453 22.3054 9.69386 25.0254 13.9642 25.0254C16.6138 25.0254 19.1647 23.9684 21.0391 22.094C22.9135 20.2196 23.9705 17.6687 23.9705 15.0191C23.8155 10.9461 21.5324 7.25358 17.9526 5.32277C14.3729 3.37787 10.0321 3.47652 6.53692 5.57645C10.1589 2.72957 15.0776 2.19402 19.2211 4.20938C23.3645 6.22475 25.9859 10.4246 25.9859 15.0332C25.9859 18.2183 24.7175 21.2766 22.4626 23.5315C20.2358 25.7865 17.1775 27.0408 13.9783 27.0408Z" fill="white"/>
</mask>
<g mask="url(#mask0_35_563)">
<path d="M26.0001 2.19336H2.06934V27.0824H26.0001V2.19336Z" fill="url(#paint0_linear_35_563)"/>
</g>
<path fill-rule="evenodd" clip-rule="evenodd" d="M20.3065 22.7844C19.0521 23.8273 17.5864 24.6024 15.9657 25.0534C12.2168 26.1105 8.21427 25.2367 5.25464 22.7703C7.2841 25.4199 10.4974 27.0547 13.9785 27.0265C17.1636 27.0265 20.2219 25.7581 22.4769 23.5032C24.7318 21.2482 26.0002 18.1899 26.0002 15.0048C26.0002 11.0586 24.0694 7.40841 20.9266 5.18164C23.9849 8.11308 25.2392 12.4539 24.2104 16.5551C23.6889 18.6268 22.646 20.4731 21.1944 21.9388C21.1521 21.9811 21.0957 22.0374 21.0534 22.0797C20.8279 22.3475 20.5742 22.573 20.3065 22.7844Z" fill="#008CFF"/>
<path fill-rule="evenodd" clip-rule="evenodd" d="M8.15783 21.0226C10.1168 22.9111 12.8651 23.7426 15.5428 23.2352C18.2206 22.7279 20.4755 20.9521 21.603 18.4716C23.3506 14.61 21.9272 10.0437 18.2769 7.85926C14.6408 5.67477 9.93361 6.57675 7.3545 9.931C4.7754 13.2993 5.11364 18.0629 8.15783 21.0226Z" fill="url(#paint1_linear_35_563)"/>
<path d="M18.3042 12.8945C17.878 12.388 17.2423 12.0632 16.5297 12.0632C16.0757 12.0632 15.653 12.1924 15.2967 12.4195C14.7937 11.3436 13.7039 10.5996 12.4394 10.5996C10.6999 10.5996 9.28876 12.0108 9.28876 13.7503C9.28876 13.9389 9.30623 14.124 9.33766 14.3057C8.14655 14.3755 7.19995 15.3641 7.19995 16.5726C7.19995 17.3062 7.54925 17.9559 8.08717 18.3715C8.58667 18.7627 9.20493 18.8745 9.6171 18.9269C11.3322 19.14 13.8821 14.2673 18.7338 14.3022H18.664C18.7618 14.3022 18.891 14.1625 18.9015 14.2463C18.8107 13.4464 18.3042 12.898 18.3042 12.8945Z" fill="white"/>
<path d="M14.7482 18.9903C18.3529 18.9903 20.082 17.153 20.7945 13.8801C19.8898 13.6845 19.5336 13.688 18.7372 13.681C13.1065 13.6391 11.1189 17.8481 10.4238 18.9833C10.5286 18.9903 14.7482 18.9903 14.7482 18.9903Z" fill="url(#paint2_linear_35_563)"/>
<path d="M10.4832 18.9795C9.36193 18.99 8.6319 18.7245 8.0835 18.3228C8.0835 18.3228 10.9757 13.237 18.7371 13.6841L10.4832 18.9795Z" fill="url(#paint3_linear_35_563)"/>
<path d="M10.4238 18.9823C10.4238 18.9823 16.306 18.4828 20.7945 13.879C20.7945 13.879 14.9612 12.0557 10.4238 18.9823Z" fill="url(#paint4_linear_35_563)"/>
<defs>
<linearGradient id="paint0_linear_35_563" x1="23.9259" y1="23.7686" x2="2.69274" y2="4.14492" gradientUnits="userSpaceOnUse">
<stop stop-color="#002BFF"/>
<stop offset="1" stop-color="#00223E"/>
</linearGradient>
<linearGradient id="paint1_linear_35_563" x1="-1.68272" y1="3.55578" x2="-4.91982" y2="17.3167" gradientUnits="userSpaceOnUse">
<stop stop-color="#00269C"/>
<stop offset="0.45348" stop-color="#008CFF"/>
<stop offset="1" stop-color="#00ECFD" stop-opacity="0.65"/>
</linearGradient>
<linearGradient id="paint2_linear_35_563" x1="15.6092" y1="13.6807" x2="15.6092" y2="18.9903" gradientUnits="userSpaceOnUse">
<stop stop-color="#D2DBFF"/>
<stop offset="0.45" stop-color="#00A7E5"/>
<stop offset="1" stop-color="#0027BC"/>
</linearGradient>
<linearGradient id="paint3_linear_35_563" x1="13.4103" y1="13.6562" x2="13.4103" y2="18.9798" gradientUnits="userSpaceOnUse">
<stop stop-color="#D2DBFF"/>
<stop offset="0.45" stop-color="#00A7E5"/>
<stop offset="1" stop-color="#0027BC"/>
</linearGradient>
<linearGradient id="paint4_linear_35_563" x1="17.2194" y1="13.4414" x2="14.3311" y2="16.9963" gradientUnits="userSpaceOnUse">
<stop stop-color="#0027AB"/>
<stop offset="1" stop-color="#001045"/>
</linearGradient>
</defs>
</svg>
