<svg width="48" height="48" viewBox="0 0 48 48" fill="none" xmlns="http://www.w3.org/2000/svg">
<mask id="mask0_35_544" style="mask-type:luminance" maskUnits="userSpaceOnUse" x="6" y="5" width="37" height="39">
<path d="M23.4521 43.2176C15.7898 43.2848 9.02373 38.3111 6.76089 30.9848C4.52045 23.6586 7.3434 15.7499 13.7062 11.493C8.30679 15.6603 6.17837 22.7848 8.374 29.2373C10.5696 35.6898 16.6412 40.0138 23.4297 40.0138C27.6418 40.0138 31.6969 38.3335 34.6767 35.3537C37.6565 32.3739 39.3368 28.3187 39.3368 24.1067C39.0904 17.6318 35.4609 11.7619 29.7702 8.6925C24.0795 5.6007 17.1789 5.75753 11.6226 9.09578C17.3806 4.5701 25.1997 3.71873 31.7866 6.92255C38.3734 10.1264 42.5407 16.8029 42.5407 24.1291C42.5407 29.1925 40.5243 34.0542 36.9396 37.6389C33.3997 41.2236 28.5379 43.2176 23.4521 43.2176Z" fill="white"/>
</mask>
<g mask="url(#mask0_35_544)">
<path d="M42.5631 3.71777H4.52051V43.2839H42.5631V3.71777Z" fill="url(#paint0_linear_35_544)"/>
</g>
<path fill-rule="evenodd" clip-rule="evenodd" d="M33.5118 36.4508C31.5178 38.1087 29.1878 39.341 26.6113 40.0579C20.6517 41.7382 14.2889 40.3492 9.58398 36.4284C12.8102 40.6404 17.9184 43.2393 23.4523 43.1945C28.5157 43.1945 33.3774 41.1781 36.9621 37.5934C40.5468 34.0087 42.5632 29.147 42.5632 24.0836C42.5632 17.8104 39.4938 12.0077 34.4976 8.46777C39.3594 13.1279 41.3534 20.0284 39.7178 26.5481C38.8889 29.8415 37.231 32.7765 34.9233 35.1066C34.8561 35.1738 34.7665 35.2634 34.6993 35.3306C34.3408 35.7563 33.9375 36.1148 33.5118 36.4508Z" fill="#008CFF"/>
<path fill-rule="evenodd" clip-rule="evenodd" d="M14.1991 33.6503C17.3133 36.6525 21.6822 37.9744 25.939 37.1678C30.1958 36.3613 33.7805 33.5383 35.5729 29.5951C38.351 23.4564 36.0882 16.1973 30.2854 12.7247C24.5051 9.25199 17.022 10.6859 12.9221 16.0181C8.82205 21.3728 9.35976 28.9454 14.1991 33.6503Z" fill="url(#paint1_linear_35_544)"/>
<path d="M30.3291 20.7283C29.6517 19.9231 28.6411 19.4067 27.5083 19.4067C26.7864 19.4067 26.1145 19.6122 25.5482 19.9731C24.7486 18.2628 23.0161 17.0801 21.006 17.0801C18.2407 17.0801 15.9973 19.3234 15.9973 22.0887C15.9973 22.3886 16.0251 22.6829 16.0751 22.9716C14.1816 23.0827 12.6768 24.6541 12.6768 26.5754C12.6768 27.7415 13.232 28.7743 14.0872 29.4351C14.8812 30.057 15.8641 30.2347 16.5193 30.318C19.2457 30.6567 23.2993 22.9105 31.0121 22.9661H30.9011C31.0565 22.9661 31.262 22.7439 31.2787 22.8772C31.1343 21.6056 30.3291 20.7338 30.3291 20.7283Z" fill="white"/>
<path d="M24.6764 30.4183C30.4069 30.4183 33.1555 27.4975 34.2883 22.2945C32.8501 21.9836 32.2837 21.9891 31.0177 21.978C22.0666 21.9114 18.907 28.6025 17.802 30.4072C17.9686 30.4183 24.6764 30.4183 24.6764 30.4183Z" fill="url(#paint2_linear_35_544)"/>
<path d="M17.8961 30.4008C16.1136 30.4174 14.9531 29.9954 14.0813 29.3569C14.0813 29.3569 18.679 21.272 31.0174 21.9827L17.8961 30.4008Z" fill="url(#paint3_linear_35_544)"/>
<path d="M17.802 30.4067C17.802 30.4067 27.1529 29.6126 34.2883 22.294C34.2883 22.294 25.0151 19.3954 17.802 30.4067Z" fill="url(#paint4_linear_35_544)"/>
<defs>
<linearGradient id="paint0_linear_35_544" x1="39.2659" y1="38.0159" x2="5.51153" y2="6.82016" gradientUnits="userSpaceOnUse">
<stop stop-color="#002BFF"/>
<stop offset="1" stop-color="#00223E"/>
</linearGradient>
<linearGradient id="paint1_linear_35_544" x1="-1.4444" y1="5.88344" x2="-6.59041" y2="27.7592" gradientUnits="userSpaceOnUse">
<stop stop-color="#00269C"/>
<stop offset="0.45348" stop-color="#008CFF"/>
<stop offset="1" stop-color="#00ECFD" stop-opacity="0.65"/>
</linearGradient>
<linearGradient id="paint2_linear_35_544" x1="26.0451" y1="21.9775" x2="26.0451" y2="30.4183" gradientUnits="userSpaceOnUse">
<stop stop-color="#D2DBFF"/>
<stop offset="0.45" stop-color="#00A7E5"/>
<stop offset="1" stop-color="#0027BC"/>
</linearGradient>
<linearGradient id="paint3_linear_35_544" x1="22.5493" y1="21.9385" x2="22.5493" y2="30.4013" gradientUnits="userSpaceOnUse">
<stop stop-color="#D2DBFF"/>
<stop offset="0.45" stop-color="#00A7E5"/>
<stop offset="1" stop-color="#0027BC"/>
</linearGradient>
<linearGradient id="paint4_linear_35_544" x1="28.6049" y1="21.5984" x2="24.0133" y2="27.2496" gradientUnits="userSpaceOnUse">
<stop stop-color="#0027AB"/>
<stop offset="1" stop-color="#001045"/>
</linearGradient>
</defs>
</svg>
