<svg width="500" height="200" viewBox="0 0 500 200" fill="none" xmlns="http://www.w3.org/2000/svg">
<path d="M162.629 59.1562H189.934V65.4844H169.924V77.3203H187.209V83.6191H169.924V99H162.629V59.1562ZM192.805 83.9414C192.805 81.7344 193.186 79.6641 193.947 77.7305C194.729 75.7773 195.822 74.0781 197.229 72.6328C198.654 71.1875 200.354 70.0449 202.326 69.2051C204.318 68.3652 206.525 67.9453 208.947 67.9453C210.08 67.9453 211.154 68.0625 212.17 68.2969C213.205 68.5117 214.172 68.8145 215.07 69.2051C215.969 69.5762 216.789 70.0254 217.531 70.5527C218.293 71.0605 218.967 71.5977 219.553 72.1641L219.963 68.8535H226.057V99H219.963L219.553 95.6895C218.947 96.2754 218.264 96.8223 217.502 97.3301C216.74 97.8379 215.91 98.2871 215.012 98.6777C214.133 99.0488 213.176 99.3418 212.141 99.5566C211.125 99.791 210.051 99.9082 208.918 99.9082C206.516 99.9082 204.318 99.498 202.326 98.6777C200.354 97.8379 198.664 96.6953 197.258 95.25C195.852 93.8047 194.758 92.1152 193.977 90.1816C193.195 88.2285 192.805 86.1484 192.805 83.9414ZM199.924 83.9121C199.924 85.3574 200.178 86.6855 200.686 87.8965C201.193 89.1074 201.887 90.1523 202.766 91.0312C203.645 91.8906 204.67 92.5645 205.842 93.0527C207.014 93.5215 208.273 93.7559 209.621 93.7559C210.949 93.7559 212.199 93.5215 213.371 93.0527C214.543 92.5645 215.559 91.8906 216.418 91.0312C217.297 90.1523 217.99 89.1172 218.498 87.9258C219.006 86.7148 219.26 85.377 219.26 83.9121C219.26 82.4863 219.006 81.1777 218.498 79.9863C217.99 78.7754 217.297 77.7402 216.418 76.8809C215.539 76.0215 214.514 75.3477 213.342 74.8594C212.17 74.3711 210.91 74.127 209.562 74.127C208.215 74.127 206.955 74.3711 205.783 74.8594C204.611 75.3281 203.586 76.002 202.707 76.8809C201.848 77.7402 201.164 78.7754 200.656 79.9863C200.168 81.1777 199.924 82.4863 199.924 83.9121ZM235.812 57.7207H242.932V83.8242L255.354 68.8535H263.703L253.127 81.5098L264.641 99H256.115L248 86.1973L242.932 92.0273V99H235.812V57.7207ZM273.723 60.2988L278.938 60.2695V68.8535H288.547V75.0059H278.908V87.3398C278.908 88.5508 279.045 89.5566 279.318 90.3574C279.611 91.1387 279.992 91.7637 280.461 92.2324C280.949 92.6816 281.516 93.0039 282.16 93.1992C282.805 93.375 283.488 93.4629 284.211 93.4629H289.367L289.309 99.3223H283.537C281.916 99.3223 280.393 99.1562 278.967 98.8242C277.541 98.4922 276.301 97.8867 275.246 97.0078C274.191 96.1094 273.352 94.8887 272.727 93.3457C272.121 91.8027 271.818 89.8203 271.818 87.3984V75.0059H266.779V69.498L271.643 68.1504L273.723 60.2988ZM294.992 83.9414C294.992 81.7344 295.373 79.6641 296.135 77.7305C296.916 75.7773 298.01 74.0781 299.416 72.6328C300.842 71.1875 302.541 70.0449 304.514 69.2051C306.506 68.3652 308.713 67.9453 311.135 67.9453C312.268 67.9453 313.342 68.0625 314.357 68.2969C315.393 68.5117 316.359 68.8145 317.258 69.2051C318.156 69.5762 318.977 70.0254 319.719 70.5527C320.48 71.0605 321.154 71.5977 321.74 72.1641L322.15 68.8535H328.244V99H322.15L321.74 95.6895C321.135 96.2754 320.451 96.8223 319.689 97.3301C318.928 97.8379 318.098 98.2871 317.199 98.6777C316.32 99.0488 315.363 99.3418 314.328 99.5566C313.312 99.791 312.238 99.9082 311.105 99.9082C308.703 99.9082 306.506 99.498 304.514 98.6777C302.541 97.8379 300.852 96.6953 299.445 95.25C298.039 93.8047 296.945 92.1152 296.164 90.1816C295.383 88.2285 294.992 86.1484 294.992 83.9414ZM302.111 83.9121C302.111 85.3574 302.365 86.6855 302.873 87.8965C303.381 89.1074 304.074 90.1523 304.953 91.0312C305.832 91.8906 306.857 92.5645 308.029 93.0527C309.201 93.5215 310.461 93.7559 311.809 93.7559C313.137 93.7559 314.387 93.5215 315.559 93.0527C316.73 92.5645 317.746 91.8906 318.605 91.0312C319.484 90.1523 320.178 89.1172 320.686 87.9258C321.193 86.7148 321.447 85.377 321.447 83.9121C321.447 82.4863 321.193 81.1777 320.686 79.9863C320.178 78.7754 319.484 77.7402 318.605 76.8809C317.727 76.0215 316.701 75.3477 315.529 74.8594C314.357 74.3711 313.098 74.127 311.75 74.127C310.402 74.127 309.143 74.3711 307.971 74.8594C306.799 75.3281 305.773 76.002 304.895 76.8809C304.035 77.7402 303.352 78.7754 302.844 79.9863C302.355 81.1777 302.111 82.4863 302.111 83.9121Z" fill="white"/>
<path d="M337.941 59.1562H345.236V99H337.941V59.1562ZM354.582 57.7207H361.701V83.8242L374.123 68.8535H382.473L371.896 81.5098L383.41 99H374.885L366.77 86.1973L361.701 92.0273V99H354.582V57.7207ZM388.918 57.7207H396.037V99H388.918V57.7207ZM405.5 68.8535H412.678V99H405.5V68.8535ZM404.709 60.3281C404.709 59.7812 404.816 59.2734 405.031 58.8047C405.246 58.3164 405.539 57.8965 405.91 57.5449C406.301 57.1738 406.77 56.8809 407.316 56.666C407.863 56.4512 408.469 56.3438 409.133 56.3438C409.797 56.3438 410.402 56.4512 410.949 56.666C411.516 56.8809 411.994 57.1738 412.385 57.5449C412.775 57.8965 413.078 58.3164 413.293 58.8047C413.508 59.2734 413.615 59.7812 413.615 60.3281C413.615 60.875 413.508 61.3926 413.293 61.8809C413.078 62.3496 412.775 62.7695 412.385 63.1406C411.994 63.4922 411.516 63.7754 410.949 63.9902C410.402 64.1855 409.797 64.2832 409.133 64.2832C408.469 64.2832 407.863 64.1855 407.316 63.9902C406.789 63.7754 406.33 63.4922 405.939 63.1406C405.549 62.7695 405.246 62.3496 405.031 61.8809C404.816 61.3926 404.709 60.875 404.709 60.3281ZM472.297 99H465.148V82.7695C465.148 79.7812 464.611 77.5938 463.537 76.207C462.463 74.8203 460.939 74.127 458.967 74.127C457.834 74.127 456.799 74.3223 455.861 74.7129C454.924 75.084 454.104 75.6211 453.4 76.3242C452.717 77.0273 452.18 77.8965 451.789 78.9316C451.398 79.9473 451.184 81.0996 451.145 82.3887V99H443.967V82.7695C443.967 79.7812 443.43 77.5938 442.355 76.207C441.281 74.8203 439.758 74.127 437.785 74.127C436.633 74.127 435.568 74.3223 434.592 74.7129C433.635 75.1035 432.814 75.6797 432.131 76.4414C431.447 77.1836 430.91 78.1016 430.52 79.1953C430.148 80.2695 429.963 81.4902 429.963 82.8574V99H422.844V68.8535H428.645L429.143 71.6367C429.709 71.1289 430.334 70.6504 431.018 70.2012C431.721 69.752 432.482 69.3613 433.303 69.0293C434.123 68.6973 434.992 68.4336 435.91 68.2383C436.848 68.043 437.824 67.9453 438.84 67.9453C440.949 67.9453 442.814 68.3457 444.436 69.1465C446.076 69.9473 447.434 71.0801 448.508 72.5449C449.094 71.9199 449.768 71.334 450.529 70.7871C451.311 70.2207 452.17 69.7324 453.107 69.3223C454.045 68.8926 455.07 68.5605 456.184 68.3262C457.297 68.0723 458.498 67.9453 459.787 67.9453C461.779 67.9453 463.547 68.2773 465.09 68.9414C466.652 69.5859 467.961 70.5332 469.016 71.7832C470.09 73.0137 470.9 74.5371 471.447 76.3535C472.014 78.1699 472.297 80.2402 472.297 82.5645V99Z" fill="#BABABA"/>
<path d="M172.937 135.712H164.977L163.618 139H160.279L167.465 121.722H170.461L177.646 139H174.295L172.937 135.712ZM166.094 132.995H171.807L169.064 126.33L168.963 125.886H168.95L168.849 126.33L166.094 132.995ZM179.982 121.112H183.067V132.424L188.45 125.937H192.068L187.485 131.421L192.475 139H188.78L185.264 133.452L183.067 135.979V139H179.982V121.112ZM196.702 135.064C196.711 135.31 196.783 135.543 196.918 135.763C197.062 135.983 197.252 136.173 197.489 136.334C197.726 136.495 198.001 136.622 198.314 136.715C198.628 136.808 198.966 136.854 199.33 136.854C200.312 136.854 201.035 136.711 201.501 136.423C201.966 136.127 202.199 135.729 202.199 135.229C202.199 134.95 202.115 134.717 201.945 134.531C201.776 134.345 201.531 134.188 201.209 134.062C200.887 133.935 200.494 133.825 200.028 133.731C199.563 133.63 199.034 133.524 198.441 133.414C198.145 133.372 197.832 133.317 197.502 133.249C197.18 133.181 196.859 133.092 196.537 132.982C196.215 132.864 195.907 132.716 195.61 132.538C195.323 132.36 195.064 132.145 194.836 131.891C194.616 131.628 194.438 131.319 194.303 130.964C194.167 130.6 194.1 130.173 194.1 129.682C194.1 129.072 194.21 128.518 194.43 128.019C194.65 127.511 194.993 127.075 195.458 126.711C195.924 126.339 196.516 126.051 197.235 125.848C197.955 125.645 198.814 125.543 199.812 125.543C200.6 125.543 201.306 125.645 201.933 125.848C202.567 126.051 203.105 126.334 203.545 126.698C203.985 127.062 204.324 127.498 204.561 128.006C204.798 128.514 204.916 129.068 204.916 129.669L201.831 129.656C201.797 129.199 201.581 128.823 201.184 128.526C200.786 128.23 200.257 128.082 199.597 128.082C199.165 128.082 198.797 128.129 198.492 128.222C198.188 128.306 197.938 128.421 197.743 128.564C197.549 128.708 197.405 128.878 197.312 129.072C197.218 129.258 197.172 129.453 197.172 129.656C197.172 129.893 197.235 130.092 197.362 130.253C197.489 130.414 197.68 130.549 197.934 130.659C198.188 130.769 198.509 130.862 198.898 130.938C199.288 131.015 199.745 131.082 200.27 131.142C200.904 131.243 201.531 131.37 202.148 131.522C202.766 131.666 203.316 131.878 203.799 132.157C204.281 132.437 204.671 132.805 204.967 133.262C205.263 133.719 205.411 134.307 205.411 135.026C205.411 135.763 205.263 136.406 204.967 136.956C204.671 137.498 204.252 137.951 203.71 138.314C203.168 138.678 202.517 138.949 201.755 139.127C200.993 139.313 200.147 139.406 199.216 139.406C198.285 139.406 197.472 139.275 196.778 139.013C196.084 138.759 195.505 138.424 195.039 138.01C194.582 137.595 194.239 137.13 194.011 136.613C193.782 136.097 193.668 135.576 193.668 135.052L196.702 135.064ZM208.268 125.937H211.378V139H208.268V125.937ZM207.925 122.242C207.925 122.005 207.971 121.785 208.064 121.582C208.158 121.37 208.285 121.188 208.445 121.036C208.615 120.875 208.818 120.748 209.055 120.655C209.292 120.562 209.554 120.516 209.842 120.516C210.13 120.516 210.392 120.562 210.629 120.655C210.874 120.748 211.082 120.875 211.251 121.036C211.42 121.188 211.551 121.37 211.645 121.582C211.738 121.785 211.784 122.005 211.784 122.242C211.784 122.479 211.738 122.703 211.645 122.915C211.551 123.118 211.42 123.3 211.251 123.461C211.082 123.613 210.874 123.736 210.629 123.829C210.392 123.914 210.13 123.956 209.842 123.956C209.554 123.956 209.292 123.914 209.055 123.829C208.826 123.736 208.627 123.613 208.458 123.461C208.289 123.3 208.158 123.118 208.064 122.915C207.971 122.703 207.925 122.479 207.925 122.242ZM236.972 139H234.255L224.86 127.206V139H221.699V121.734H224.416L233.823 133.528V121.734H236.972V139ZM253.399 125.937L245.744 143.481H242.418L244.754 138.454L239.333 125.937H242.748L246.227 134.239L246.379 134.899L250.086 125.949L253.399 125.937ZM254.631 132.475C254.631 131.518 254.796 130.621 255.126 129.783C255.465 128.937 255.938 128.201 256.548 127.574C257.166 126.948 257.902 126.453 258.757 126.089C259.62 125.725 260.576 125.543 261.626 125.543C262.117 125.543 262.582 125.594 263.022 125.695C263.471 125.788 263.89 125.92 264.279 126.089C264.669 126.25 265.024 126.444 265.346 126.673C265.676 126.893 265.968 127.126 266.222 127.371L266.399 125.937H269.04V139H266.399L266.222 137.565C265.959 137.819 265.663 138.056 265.333 138.276C265.003 138.496 264.643 138.691 264.254 138.86C263.873 139.021 263.458 139.148 263.01 139.241C262.57 139.343 262.104 139.394 261.613 139.394C260.572 139.394 259.62 139.216 258.757 138.86C257.902 138.496 257.17 138.001 256.561 137.375C255.951 136.749 255.477 136.017 255.139 135.179C254.8 134.332 254.631 133.431 254.631 132.475ZM257.716 132.462C257.716 133.088 257.826 133.664 258.046 134.188C258.266 134.713 258.566 135.166 258.947 135.547C259.328 135.919 259.772 136.211 260.28 136.423C260.788 136.626 261.334 136.728 261.918 136.728C262.493 136.728 263.035 136.626 263.543 136.423C264.051 136.211 264.491 135.919 264.863 135.547C265.244 135.166 265.545 134.717 265.765 134.201C265.985 133.676 266.095 133.097 266.095 132.462C266.095 131.844 265.985 131.277 265.765 130.761C265.545 130.236 265.244 129.787 264.863 129.415C264.482 129.043 264.038 128.751 263.53 128.539C263.022 128.327 262.477 128.222 261.893 128.222C261.309 128.222 260.763 128.327 260.255 128.539C259.747 128.742 259.303 129.034 258.922 129.415C258.549 129.787 258.253 130.236 258.033 130.761C257.822 131.277 257.716 131.844 257.716 132.462ZM274.816 122.229L277.076 122.217V125.937H281.24V128.603H277.063V133.947C277.063 134.472 277.123 134.908 277.241 135.255C277.368 135.593 277.533 135.864 277.736 136.067C277.948 136.262 278.193 136.402 278.473 136.486C278.752 136.562 279.048 136.601 279.361 136.601H281.596L281.57 139.14H279.069C278.367 139.14 277.707 139.068 277.089 138.924C276.471 138.78 275.934 138.518 275.477 138.137C275.02 137.747 274.656 137.218 274.385 136.55C274.122 135.881 273.991 135.022 273.991 133.973V128.603H271.808V126.216L273.915 125.632L274.816 122.229ZM284.033 132.475C284.033 131.518 284.198 130.621 284.528 129.783C284.867 128.937 285.341 128.201 285.95 127.574C286.568 126.948 287.304 126.453 288.159 126.089C289.022 125.725 289.979 125.543 291.028 125.543C291.519 125.543 291.985 125.594 292.425 125.695C292.873 125.788 293.292 125.92 293.682 126.089C294.071 126.25 294.426 126.444 294.748 126.673C295.078 126.893 295.37 127.126 295.624 127.371L295.802 125.937H298.442V139H295.802L295.624 137.565C295.362 137.819 295.065 138.056 294.735 138.276C294.405 138.496 294.046 138.691 293.656 138.86C293.275 139.021 292.861 139.148 292.412 139.241C291.972 139.343 291.507 139.394 291.016 139.394C289.975 139.394 289.022 139.216 288.159 138.86C287.304 138.496 286.572 138.001 285.963 137.375C285.354 136.749 284.88 136.017 284.541 135.179C284.202 134.332 284.033 133.431 284.033 132.475ZM287.118 132.462C287.118 133.088 287.228 133.664 287.448 134.188C287.668 134.713 287.969 135.166 288.35 135.547C288.73 135.919 289.175 136.211 289.683 136.423C290.19 136.626 290.736 136.728 291.32 136.728C291.896 136.728 292.438 136.626 292.945 136.423C293.453 136.211 293.893 135.919 294.266 135.547C294.646 135.166 294.947 134.717 295.167 134.201C295.387 133.676 295.497 133.097 295.497 132.462C295.497 131.844 295.387 131.277 295.167 130.761C294.947 130.236 294.646 129.787 294.266 129.415C293.885 129.043 293.44 128.751 292.933 128.539C292.425 128.327 291.879 128.222 291.295 128.222C290.711 128.222 290.165 128.327 289.657 128.539C289.149 128.742 288.705 129.034 288.324 129.415C287.952 129.787 287.656 130.236 287.436 130.761C287.224 131.277 287.118 131.844 287.118 132.462ZM311.747 133.363V139H308.586V121.734H315.86C316.732 121.734 317.532 121.882 318.26 122.179C318.996 122.466 319.631 122.868 320.164 123.385C320.697 123.901 321.112 124.519 321.408 125.238C321.704 125.949 321.853 126.724 321.853 127.562C321.853 128.416 321.704 129.199 321.408 129.91C321.12 130.613 320.71 131.222 320.177 131.738C319.652 132.255 319.026 132.657 318.298 132.944C317.57 133.224 316.774 133.363 315.911 133.363H311.747ZM315.746 130.634C316.161 130.634 316.546 130.558 316.901 130.405C317.265 130.244 317.578 130.029 317.841 129.758C318.103 129.479 318.311 129.153 318.463 128.78C318.615 128.408 318.691 128.006 318.691 127.574C318.691 127.143 318.615 126.741 318.463 126.368C318.311 125.987 318.099 125.657 317.828 125.378C317.566 125.099 317.253 124.879 316.889 124.718C316.533 124.549 316.148 124.464 315.733 124.464H311.747V130.634H315.746ZM322.906 132.475C322.906 131.518 323.071 130.621 323.401 129.783C323.74 128.937 324.214 128.201 324.823 127.574C325.441 126.948 326.177 126.453 327.032 126.089C327.896 125.725 328.852 125.543 329.901 125.543C330.392 125.543 330.858 125.594 331.298 125.695C331.746 125.788 332.165 125.92 332.555 126.089C332.944 126.25 333.299 126.444 333.621 126.673C333.951 126.893 334.243 127.126 334.497 127.371L334.675 125.937H337.315V139H334.675L334.497 137.565C334.235 137.819 333.938 138.056 333.608 138.276C333.278 138.496 332.919 138.691 332.529 138.86C332.148 139.021 331.734 139.148 331.285 139.241C330.845 139.343 330.38 139.394 329.889 139.394C328.848 139.394 327.896 139.216 327.032 138.86C326.177 138.496 325.445 138.001 324.836 137.375C324.227 136.749 323.753 136.017 323.414 135.179C323.076 134.332 322.906 133.431 322.906 132.475ZM325.991 132.462C325.991 133.088 326.101 133.664 326.321 134.188C326.541 134.713 326.842 135.166 327.223 135.547C327.604 135.919 328.048 136.211 328.556 136.423C329.063 136.626 329.609 136.728 330.193 136.728C330.769 136.728 331.311 136.626 331.818 136.423C332.326 136.211 332.766 135.919 333.139 135.547C333.52 135.166 333.82 134.717 334.04 134.201C334.26 133.676 334.37 133.097 334.37 132.462C334.37 131.844 334.26 131.277 334.04 130.761C333.82 130.236 333.52 129.787 333.139 129.415C332.758 129.043 332.313 128.751 331.806 128.539C331.298 128.327 330.752 128.222 330.168 128.222C329.584 128.222 329.038 128.327 328.53 128.539C328.022 128.742 327.578 129.034 327.197 129.415C326.825 129.787 326.529 130.236 326.309 130.761C326.097 131.277 325.991 131.844 325.991 132.462ZM354.695 139H351.585V131.967C351.585 131.256 351.509 130.663 351.356 130.189C351.204 129.707 350.98 129.322 350.684 129.034C350.396 128.738 350.04 128.531 349.617 128.412C349.202 128.285 348.724 128.222 348.183 128.222C347.683 128.222 347.214 128.311 346.773 128.488C346.342 128.666 345.965 128.92 345.644 129.25C345.33 129.58 345.081 129.978 344.895 130.443C344.717 130.9 344.628 131.408 344.628 131.967V139.013H341.543V121.112H344.615L344.603 127.13C345.11 126.681 345.724 126.305 346.443 126C347.163 125.695 347.941 125.543 348.779 125.543C349.795 125.543 350.675 125.683 351.42 125.962C352.165 126.241 352.778 126.652 353.261 127.193C353.752 127.735 354.111 128.404 354.34 129.199C354.577 129.986 354.695 130.892 354.695 131.916V139ZM357.742 132.475C357.742 131.518 357.907 130.621 358.237 129.783C358.576 128.937 359.05 128.201 359.659 127.574C360.277 126.948 361.013 126.453 361.868 126.089C362.731 125.725 363.688 125.543 364.737 125.543C365.228 125.543 365.694 125.594 366.134 125.695C366.582 125.788 367.001 125.92 367.391 126.089C367.78 126.25 368.135 126.444 368.457 126.673C368.787 126.893 369.079 127.126 369.333 127.371L369.511 125.937H372.151V139H369.511L369.333 137.565C369.071 137.819 368.774 138.056 368.444 138.276C368.114 138.496 367.755 138.691 367.365 138.86C366.984 139.021 366.57 139.148 366.121 139.241C365.681 139.343 365.215 139.394 364.725 139.394C363.684 139.394 362.731 139.216 361.868 138.86C361.013 138.496 360.281 138.001 359.672 137.375C359.062 136.749 358.589 136.017 358.25 135.179C357.911 134.332 357.742 133.431 357.742 132.475ZM360.827 132.462C360.827 133.088 360.937 133.664 361.157 134.188C361.377 134.713 361.678 135.166 362.059 135.547C362.439 135.919 362.884 136.211 363.392 136.423C363.899 136.626 364.445 136.728 365.029 136.728C365.605 136.728 366.146 136.626 366.654 136.423C367.162 136.211 367.602 135.919 367.975 135.547C368.355 135.166 368.656 134.717 368.876 134.201C369.096 133.676 369.206 133.097 369.206 132.462C369.206 131.844 369.096 131.277 368.876 130.761C368.656 130.236 368.355 129.787 367.975 129.415C367.594 129.043 367.149 128.751 366.642 128.539C366.134 128.327 365.588 128.222 365.004 128.222C364.42 128.222 363.874 128.327 363.366 128.539C362.858 128.742 362.414 129.034 362.033 129.415C361.661 129.787 361.365 130.236 361.145 130.761C360.933 131.277 360.827 131.844 360.827 132.462ZM397.809 139H394.711V131.967C394.711 130.672 394.478 129.724 394.013 129.123C393.547 128.522 392.887 128.222 392.032 128.222C391.541 128.222 391.093 128.306 390.687 128.476C390.28 128.636 389.925 128.869 389.62 129.174C389.324 129.479 389.091 129.855 388.922 130.304C388.753 130.744 388.66 131.243 388.643 131.802V139H385.532V131.967C385.532 130.672 385.299 129.724 384.834 129.123C384.368 128.522 383.708 128.222 382.854 128.222C382.354 128.222 381.893 128.306 381.47 128.476C381.055 128.645 380.7 128.895 380.403 129.225C380.107 129.546 379.874 129.944 379.705 130.418C379.544 130.883 379.464 131.412 379.464 132.005V139H376.379V125.937H378.893L379.108 127.143C379.354 126.923 379.625 126.715 379.921 126.521C380.226 126.326 380.556 126.157 380.911 126.013C381.267 125.869 381.643 125.755 382.041 125.67C382.447 125.585 382.87 125.543 383.311 125.543C384.225 125.543 385.033 125.716 385.735 126.063C386.446 126.41 387.035 126.901 387.5 127.536C387.754 127.265 388.046 127.011 388.376 126.774C388.715 126.529 389.087 126.317 389.493 126.14C389.899 125.953 390.344 125.81 390.826 125.708C391.309 125.598 391.829 125.543 392.388 125.543C393.251 125.543 394.017 125.687 394.686 125.975C395.363 126.254 395.93 126.664 396.387 127.206C396.852 127.739 397.203 128.399 397.44 129.187C397.686 129.974 397.809 130.871 397.809 131.878V139ZM401.541 125.937H404.651V139H401.541V125.937ZM401.198 122.242C401.198 122.005 401.245 121.785 401.338 121.582C401.431 121.37 401.558 121.188 401.719 121.036C401.888 120.875 402.091 120.748 402.328 120.655C402.565 120.562 402.827 120.516 403.115 120.516C403.403 120.516 403.665 120.562 403.902 120.655C404.148 120.748 404.355 120.875 404.524 121.036C404.694 121.188 404.825 121.37 404.918 121.582C405.011 121.785 405.058 122.005 405.058 122.242C405.058 122.479 405.011 122.703 404.918 122.915C404.825 123.118 404.694 123.3 404.524 123.461C404.355 123.613 404.148 123.736 403.902 123.829C403.665 123.914 403.403 123.956 403.115 123.956C402.827 123.956 402.565 123.914 402.328 123.829C402.1 123.736 401.901 123.613 401.731 123.461C401.562 123.3 401.431 123.118 401.338 122.915C401.245 122.703 401.198 122.479 401.198 122.242ZM414.973 121.734H418.134V139H414.973V121.734ZM422.184 121.112H425.269V132.424L430.651 125.937H434.27L429.687 131.421L434.676 139H430.981L427.465 133.452L425.269 135.979V139H422.184V121.112ZM437.062 121.112H440.147V139H437.062V121.112ZM444.248 125.937H447.358V139H444.248V125.937ZM443.905 122.242C443.905 122.005 443.952 121.785 444.045 121.582C444.138 121.37 444.265 121.188 444.426 121.036C444.595 120.875 444.798 120.748 445.035 120.655C445.272 120.562 445.535 120.516 445.822 120.516C446.11 120.516 446.372 120.562 446.609 120.655C446.855 120.748 447.062 120.875 447.231 121.036C447.401 121.188 447.532 121.37 447.625 121.582C447.718 121.785 447.765 122.005 447.765 122.242C447.765 122.479 447.718 122.703 447.625 122.915C447.532 123.118 447.401 123.3 447.231 123.461C447.062 123.613 446.855 123.736 446.609 123.829C446.372 123.914 446.11 123.956 445.822 123.956C445.535 123.956 445.272 123.914 445.035 123.829C444.807 123.736 444.608 123.613 444.438 123.461C444.269 123.3 444.138 123.118 444.045 122.915C443.952 122.703 443.905 122.479 443.905 122.242ZM473.193 139H470.096V131.967C470.096 130.672 469.863 129.724 469.397 129.123C468.932 128.522 468.272 128.222 467.417 128.222C466.926 128.222 466.478 128.306 466.071 128.476C465.665 128.636 465.31 128.869 465.005 129.174C464.709 129.479 464.476 129.855 464.307 130.304C464.137 130.744 464.044 131.243 464.027 131.802V139H460.917V131.967C460.917 130.672 460.684 129.724 460.219 129.123C459.753 128.522 459.093 128.222 458.238 128.222C457.739 128.222 457.278 128.306 456.854 128.476C456.44 128.645 456.084 128.895 455.788 129.225C455.492 129.546 455.259 129.944 455.09 130.418C454.929 130.883 454.849 131.412 454.849 132.005V139H451.764V125.937H454.277L454.493 127.143C454.739 126.923 455.009 126.715 455.306 126.521C455.61 126.326 455.94 126.157 456.296 126.013C456.651 125.869 457.028 125.755 457.426 125.67C457.832 125.585 458.255 125.543 458.695 125.543C459.609 125.543 460.418 125.716 461.12 126.063C461.831 126.41 462.419 126.901 462.885 127.536C463.139 127.265 463.431 127.011 463.761 126.774C464.099 126.529 464.472 126.317 464.878 126.14C465.284 125.953 465.729 125.81 466.211 125.708C466.693 125.598 467.214 125.543 467.772 125.543C468.636 125.543 469.402 125.687 470.07 125.975C470.747 126.254 471.314 126.664 471.771 127.206C472.237 127.739 472.588 128.399 472.825 129.187C473.071 129.974 473.193 130.871 473.193 131.878V139Z" fill="#D6D6D6"/>
<mask id="mask0_203_216" style="mask-type:luminance" maskUnits="userSpaceOnUse" x="23" y="43" width="109" height="114">
<path d="M75.0399 156.96C52.192 157.16 32.0164 142.329 25.2689 120.483C18.5882 98.6375 27.0058 75.0547 45.979 62.3614C29.8785 74.7875 23.5319 96.032 30.079 115.272C36.626 134.513 54.7307 147.406 74.9731 147.406C87.5328 147.406 99.6248 142.396 108.51 133.511C117.395 124.625 122.406 112.533 122.406 99.9736C121.671 80.6665 110.848 63.1631 93.8795 54.0106C76.9105 44.7912 56.334 45.2589 39.7659 55.2131C56.9353 41.7181 80.2509 39.1794 99.8921 48.7328C119.533 58.2862 131.959 78.1946 131.959 100.04C131.959 115.139 125.947 129.636 115.258 140.325C104.702 151.014 90.2051 156.96 75.0399 156.96Z" fill="white"/>
</mask>
<g mask="url(#mask0_203_216)">
<path d="M132.026 39.179H18.5879V157.16H132.026V39.179Z" fill="url(#paint0_linear_203_216)"/>
</g>
<path fill-rule="evenodd" clip-rule="evenodd" d="M105.036 136.785C99.0904 141.729 92.1425 145.403 84.4597 147.541C66.6891 152.551 47.716 148.409 33.6865 136.718C43.3067 149.278 58.5386 157.027 75.0399 156.894C90.1383 156.894 104.635 150.881 115.324 140.192C126.014 129.503 132.026 115.006 132.026 99.9076C132.026 81.2017 122.874 63.8987 107.976 53.3433C122.473 67.2391 128.419 87.8156 123.542 107.256C121.07 117.077 116.126 125.829 109.245 132.777C109.045 132.977 108.777 133.244 108.577 133.445C107.508 134.714 106.306 135.783 105.036 136.785Z" fill="#008CFF"/>
<path fill-rule="evenodd" clip-rule="evenodd" d="M47.4481 128.433C56.7343 137.385 69.7616 141.327 82.4549 138.922C95.1482 136.517 105.837 128.099 111.182 116.341C119.466 98.0362 112.718 76.3908 95.4154 66.0357C78.1793 55.6807 55.8658 59.9563 43.6401 75.8563C31.4145 91.8231 33.0179 114.404 47.4481 128.433Z" fill="url(#paint1_linear_203_216)"/>
<path d="M95.5457 89.9048C93.5256 87.5039 90.5121 85.9641 87.1344 85.9641C84.9819 85.9641 82.9784 86.5767 81.2895 87.6529C78.9052 82.5532 73.7392 79.0264 67.7453 79.0264C59.4995 79.0264 52.8102 85.7157 52.8102 93.9614C52.8102 94.8555 52.893 95.7331 53.042 96.5941C47.3958 96.9253 42.9087 101.611 42.9087 107.34C42.9087 110.817 44.5645 113.897 47.1144 115.867C49.4821 117.722 52.4128 118.252 54.3666 118.5C62.4965 119.51 74.5836 96.412 97.5823 96.5776H97.2511C97.7147 96.5776 98.3274 95.9152 98.3771 96.3126C97.9466 92.5209 95.5457 89.9213 95.5457 89.9048Z" fill="white"/>
<path d="M78.6899 118.798C95.7774 118.798 103.974 110.089 107.351 94.5739C103.063 93.6467 101.374 93.6633 97.5988 93.6301C70.9077 93.4314 61.4864 113.383 58.1914 118.765C58.6881 118.798 78.6899 118.798 78.6899 118.798Z" fill="url(#paint2_linear_203_216)"/>
<path d="M58.4723 118.747C53.1573 118.797 49.6967 117.538 47.0972 115.634C47.0972 115.634 60.807 91.5263 97.5982 93.6456L58.4723 118.747Z" fill="url(#paint3_linear_203_216)"/>
<path d="M58.1914 118.764C58.1914 118.764 86.0746 116.397 107.351 94.5735C107.351 94.5735 79.6999 85.9304 58.1914 118.764Z" fill="url(#paint4_linear_203_216)"/>
<defs>
<linearGradient id="paint0_linear_203_216" x1="122.194" y1="141.451" x2="21.543" y2="48.4299" gradientUnits="userSpaceOnUse">
<stop stop-color="#002BFF"/>
<stop offset="1" stop-color="#00223E"/>
</linearGradient>
<linearGradient id="paint1_linear_203_216" x1="0.801303" y1="45.6361" x2="-14.5434" y2="110.867" gradientUnits="userSpaceOnUse">
<stop stop-color="#00269C"/>
<stop offset="0.45348" stop-color="#008CFF"/>
<stop offset="1" stop-color="#00ECFD" stop-opacity="0.65"/>
</linearGradient>
<linearGradient id="paint2_linear_203_216" x1="82.7713" y1="93.6287" x2="82.7713" y2="118.798" gradientUnits="userSpaceOnUse">
<stop stop-color="#D2DBFF"/>
<stop offset="0.45" stop-color="#00A7E5"/>
<stop offset="1" stop-color="#0027BC"/>
</linearGradient>
<linearGradient id="paint3_linear_203_216" x1="72.3477" y1="93.5137" x2="72.3477" y2="118.749" gradientUnits="userSpaceOnUse">
<stop stop-color="#D2DBFF"/>
<stop offset="0.45" stop-color="#00A7E5"/>
<stop offset="1" stop-color="#0027BC"/>
</linearGradient>
<linearGradient id="paint4_linear_203_216" x1="90.4042" y1="92.4994" x2="76.7128" y2="109.35" gradientUnits="userSpaceOnUse">
<stop stop-color="#0027AB"/>
<stop offset="1" stop-color="#001045"/>
</linearGradient>
</defs>
</svg>
