<svg width="263" height="263" viewBox="0 0 263 263" fill="none" xmlns="http://www.w3.org/2000/svg">
<g clip-path="url(#clip0_88_1147)">
<path d="M131.553 221.078V218.921C133.236 218.921 134.972 218.869 136.655 218.763L136.76 220.92C135.077 221.025 133.289 221.078 131.553 221.078ZM126.345 220.92C124.61 220.815 122.874 220.71 121.138 220.499L121.349 218.343C123.032 218.5 124.768 218.658 126.451 218.763L126.345 220.92ZM142.02 220.499L141.81 218.343C143.493 218.185 145.229 217.922 146.912 217.659L147.28 219.815C145.492 220.078 143.756 220.341 142.02 220.499ZM115.878 219.815C114.142 219.552 112.407 219.184 110.723 218.816L111.197 216.712C112.88 217.08 114.563 217.396 116.246 217.659L115.878 219.815ZM152.383 218.816L151.909 216.712C153.592 216.344 155.223 215.923 156.906 215.502L157.485 217.606C155.801 218.027 154.066 218.448 152.383 218.816ZM105.674 217.606C103.991 217.133 102.307 216.607 100.677 216.081L101.361 214.029C102.991 214.555 104.622 215.081 106.252 215.555L105.674 217.606ZM162.482 216.028L161.798 213.977C163.428 213.451 165.007 212.82 166.585 212.188L167.374 214.187C165.796 214.871 164.112 215.45 162.482 216.028ZM95.7323 214.24C94.1017 213.609 92.4711 212.872 90.8931 212.188L91.7873 210.242C93.3127 210.979 94.9433 211.662 96.5213 212.294L95.7323 214.24ZM172.213 212.136L171.319 210.19C172.844 209.453 174.422 208.717 175.895 207.928L176.894 209.821C175.369 210.61 173.791 211.399 172.213 212.136ZM86.1591 209.821C84.6337 208.98 83.0557 208.138 81.5829 207.244L82.6875 205.403C84.1603 206.297 85.6331 207.139 87.1585 207.928L86.1591 209.821ZM181.47 207.244L180.366 205.403C181.839 204.509 183.259 203.615 184.679 202.615L185.889 204.404C184.416 205.403 182.943 206.35 181.47 207.244ZM77.2171 204.404C75.7969 203.404 74.3241 202.405 72.9565 201.353L74.2715 199.617C75.6391 200.669 77.0067 201.668 78.4269 202.615L77.2171 204.404ZM190.149 201.353L188.834 199.617C190.202 198.565 191.517 197.513 192.832 196.408L194.252 198.039C192.884 199.196 191.517 200.301 190.149 201.353ZM68.8537 198.039C67.5387 196.934 66.2237 195.725 64.9613 194.515L66.4341 192.937C67.6439 194.094 68.9589 195.251 70.2739 196.356L68.8537 198.039ZM198.092 194.567L196.619 192.989C197.829 191.832 199.091 190.622 200.249 189.36L201.827 190.833C200.617 192.148 199.354 193.358 198.092 194.567ZM61.2267 190.833C60.0169 189.57 58.8597 188.255 57.7025 186.94L59.3331 185.52C60.4377 186.835 61.5949 188.098 62.7521 189.36L61.2267 190.833ZM205.351 186.94L203.72 185.52C204.825 184.205 205.929 182.89 206.929 181.523L208.665 182.838C207.56 184.258 206.455 185.625 205.351 186.94ZM54.4413 182.838C53.3893 181.47 52.3373 179.997 51.3905 178.577L53.1789 177.367C54.1257 178.787 55.1251 180.155 56.1771 181.523L54.4413 182.838ZM211.663 178.63L209.874 177.42C210.821 176 211.768 174.579 212.662 173.107L214.503 174.211C213.609 175.684 212.662 177.157 211.663 178.63ZM48.5501 174.211C47.6559 172.738 46.7617 171.213 45.9727 169.635L47.8663 168.636C48.6553 170.161 49.4969 171.634 50.3911 173.107L48.5501 174.211ZM217.081 169.635L215.187 168.636C215.976 167.11 216.765 165.585 217.449 164.059L219.395 164.954C218.711 166.479 217.922 168.11 217.081 169.635ZM43.6583 164.954C42.9219 163.376 42.2381 161.745 41.6069 160.167L43.6057 159.378C44.2369 160.956 44.9207 162.534 45.6571 164.059L43.6583 164.954ZM221.499 160.114L219.5 159.325C220.131 157.747 220.71 156.117 221.288 154.486L223.34 155.17C222.761 156.801 222.183 158.484 221.499 160.114ZM39.7659 155.223C39.1873 153.592 38.7139 151.909 38.2405 150.226L40.3445 149.647C40.8179 151.278 41.2913 152.961 41.8699 154.539L39.7659 155.223ZM224.865 150.173L222.761 149.594C223.235 147.964 223.655 146.281 223.971 144.597L226.075 145.071C225.759 146.754 225.339 148.49 224.865 150.173ZM36.9255 145.123C36.5573 143.44 36.2417 141.704 35.9261 139.969L38.0827 139.6C38.3457 141.284 38.6613 142.967 39.0295 144.65L36.9255 145.123ZM227.127 139.916L224.971 139.548C225.234 137.865 225.496 136.181 225.654 134.446L227.811 134.656C227.653 136.444 227.39 138.18 227.127 139.916ZM35.2423 134.761C35.0319 133.025 34.9267 131.29 34.8215 129.554L36.9781 129.449C37.0833 131.132 37.1885 132.868 37.3989 134.551L35.2423 134.761ZM228.232 129.501L226.075 129.396C226.18 127.713 226.233 125.977 226.233 124.294V124.136H228.389V124.241C228.389 125.977 228.337 127.765 228.232 129.501ZM36.8729 124.294H34.7163V124.241C34.7163 122.505 34.7689 120.77 34.8741 119.086L37.0307 119.192C36.9255 120.875 36.8729 122.558 36.8729 124.241V124.294ZM226.075 118.981C225.97 117.298 225.865 115.562 225.654 113.879L227.811 113.669C228.021 115.404 228.126 117.14 228.232 118.876L226.075 118.981ZM37.3989 114.037L35.2423 113.826C35.4527 112.091 35.6631 110.355 35.9261 108.619L38.0827 108.987C37.8197 110.67 37.5567 112.354 37.3989 114.037ZM224.971 108.829C224.708 107.146 224.392 105.463 224.024 103.78L226.128 103.306C226.496 104.99 226.811 106.725 227.127 108.461L224.971 108.829ZM39.0295 103.938L36.9255 103.464C37.2937 101.781 37.7145 100.045 38.1879 98.3619L40.2919 98.9405C39.8185 100.624 39.3977 102.307 39.0295 103.938ZM222.761 98.7827C222.288 97.1521 221.814 95.4689 221.236 93.8909L223.287 93.2071C223.866 94.8377 224.339 96.5209 224.813 98.2041L222.761 98.7827ZM41.7647 94.0487L39.7133 93.3649C40.2919 91.7343 40.8705 90.0511 41.5017 88.4205L43.5005 89.2095C42.9219 90.8401 42.2907 92.4707 41.7647 94.0487ZM219.5 89.1043C218.869 87.5263 218.185 85.9483 217.449 84.4229L219.395 83.5287C220.131 85.1067 220.815 86.7373 221.446 88.3153L219.5 89.1043ZM45.5519 84.5281L43.6057 83.6339C44.3421 82.0559 45.1311 80.4779 45.9201 78.9525L47.8137 79.9519C47.0247 81.4247 46.2883 83.0027 45.5519 84.5281ZM215.187 79.7941C214.398 78.2687 213.556 76.7959 212.662 75.3231L214.503 74.2185C215.397 75.6913 216.292 77.2167 217.081 78.7947L215.187 79.7941ZM50.3911 75.4809L48.5501 74.3763C49.4443 72.9035 50.3911 71.3781 51.3905 69.9579L53.1789 71.1677C52.1795 72.5353 51.2327 74.0081 50.3911 75.4809ZM209.874 71.0625C208.927 69.6423 207.928 68.2747 206.876 66.9071L208.612 65.5921C209.664 66.9597 210.716 68.3799 211.663 69.8527L209.874 71.0625ZM56.1245 66.9597L54.3887 65.6447C55.4407 64.2771 56.5453 62.9095 57.7025 61.5419L59.3331 62.9621C58.2285 64.2771 57.1765 65.5921 56.1245 66.9597ZM203.667 62.9095C202.563 61.5945 201.406 60.3321 200.249 59.1223L201.827 57.6495C203.036 58.9119 204.193 60.2269 205.351 61.5419L203.667 62.9095ZM62.8047 59.1749L61.2267 57.7021C62.4365 56.4397 63.6463 55.1773 64.9087 53.9675L66.3815 55.5455C65.1717 56.7027 63.9619 57.9125 62.8047 59.1749ZM196.619 55.4403C195.357 54.2831 194.094 53.1259 192.779 52.0213L194.2 50.3907C195.515 51.4953 196.829 52.7051 198.092 53.9149L196.619 55.4403ZM70.2213 52.1265L68.8011 50.4959C70.1161 49.3913 71.4837 48.2867 72.9039 47.1821L74.2189 48.9179C72.8513 49.9173 71.5363 51.0219 70.2213 52.1265ZM188.782 48.8127C187.414 47.7607 186.046 46.7613 184.626 45.8145L185.836 44.0261C187.256 45.0255 188.729 46.0249 190.097 47.0769L188.782 48.8127ZM78.3743 45.8671L77.1645 44.0787C78.5847 43.0793 80.1101 42.1325 81.5829 41.2383L82.6875 43.0793C81.2147 44.0261 79.7945 44.9203 78.3743 45.8671ZM180.313 43.0793C178.84 42.1851 177.367 41.3435 175.842 40.5545L176.842 38.6609C178.367 39.5025 179.892 40.3441 181.418 41.2383L180.313 43.0793ZM87.1585 40.6071L86.1591 38.7135C87.6845 37.8719 89.2625 37.1355 90.8405 36.3991L91.7347 38.3453C90.1567 39.0291 88.6313 39.8181 87.1585 40.6071ZM171.213 38.2401C169.688 37.5037 168.057 36.8199 166.479 36.1887L167.268 34.1899C168.899 34.8211 170.53 35.5049 172.107 36.2413L171.213 38.2401ZM96.4161 36.2939L95.6271 34.2951C97.2577 33.6639 98.8883 33.0327 100.572 32.5067L101.255 34.5581C99.6247 35.0841 97.9941 35.6627 96.4161 36.2939ZM161.693 34.4529C160.062 33.9269 158.432 33.4009 156.801 32.9801L157.38 30.8761C159.063 31.3495 160.746 31.8755 162.377 32.4015L161.693 34.4529ZM106.147 33.0327L105.569 30.9287C107.252 30.4553 108.935 30.0345 110.671 29.6663L111.144 31.7703C109.461 32.1385 107.778 32.5593 106.147 33.0327ZM151.804 31.7177C150.121 31.3495 148.438 31.0339 146.754 30.7709L147.123 28.6143C148.858 28.8773 150.594 29.2455 152.277 29.6137L151.804 31.7177ZM116.141 30.8235L115.773 28.6669C117.509 28.4039 119.244 28.1409 120.98 27.9831L121.191 30.1397C119.507 30.2975 117.824 30.5605 116.141 30.8235ZM141.705 30.0871C140.021 29.9293 138.286 29.7715 136.603 29.6663L136.708 27.5097C138.443 27.6149 140.232 27.7201 141.915 27.9305L141.705 30.0871ZM126.345 29.7189L126.24 27.5623C127.976 27.4571 129.765 27.4045 131.5 27.4045V29.5611C129.765 29.5611 128.029 29.6137 126.345 29.7189Z" fill="white"/>
<path d="M177.052 93.3124C169.057 102.044 167.9 114.247 167.9 114.247C167.9 114.247 161.851 124.294 152.856 126.398L147.123 121.243L103.044 125.977L90.7358 134.183L91.1566 159.168C92.8398 168.11 94.6282 177.367 98.0998 185.836C100.782 192.358 106.779 196.303 109.672 202.563C115.721 215.66 112.775 231.493 112.986 245.537H161.588C161.535 245.537 161.483 218.869 161.693 216.344C162.745 203.562 167.847 191.148 173.739 179.839C176.316 174.895 179.156 170.056 180.577 164.638C182.207 158.431 182.207 151.961 182.418 145.544C182.891 131.342 183.89 114.458 188.256 102.412C192.727 90.4194 185.048 84.5808 177.052 93.3124Z" fill="#FFCE89"/>
<path d="M152.856 125.188L147.701 121.19L145.913 121.401L151.804 127.502C152.12 126.713 152.488 125.924 152.856 125.188Z" fill="#F1DBCB"/>
<path d="M110.566 245.537H164.27V228.494C164.27 228.494 164.113 223.866 161.64 224.286C153.593 225.654 128.765 229.231 112.985 224.707C110.25 224.023 110.303 228.652 110.303 228.652L110.566 245.537Z" fill="url(#paint0_linear_88_1147)"/>
<path opacity="0.1" d="M164.27 245.537V228.494C164.27 228.494 164.113 223.866 161.64 224.286C161.64 220.289 161.693 217.133 161.746 216.344C162.798 203.562 167.9 191.148 173.791 179.839C176.368 174.895 179.209 170.056 180.629 164.638C182.26 158.431 182.26 151.961 182.47 145.544C182.786 135.866 183.364 124.872 185.1 115.036C182.26 120.244 178.209 129.554 177.736 133.446C177.157 138.075 175.527 145.807 175.159 150.594C173.475 172.528 162.587 184.679 155.591 192.726C150.068 199.038 147.018 200.827 143.704 206.981C137.076 219.237 136.445 231.861 133.236 245.589H164.27V245.537Z" fill="#414042"/>
<path d="M189.939 95.4164C183.943 96.2054 183.733 101.571 183.47 105.779C183.259 109.303 184.995 110.723 185.837 111.196C186.836 108.303 187.678 105.41 188.677 102.78L189.203 101.255C189.834 99.0984 190.045 97.0996 189.939 95.4164Z" fill="#FFEBDE"/>
<path d="M83.1087 172.37L85.0549 168.688C85.2127 168.373 85.6335 168.267 85.9491 168.425L88.7369 170.108C89.5785 170.582 89.9467 171.634 89.5785 172.528L89.4207 172.896C88.9999 174.053 87.7375 174.632 86.5277 174.264L83.3191 173.159C83.1087 173.001 83.0035 172.686 83.1087 172.37Z" fill="#FFEBDE"/>
<path d="M92.524 158.694L95.2066 155.065C95.4696 154.749 95.8904 154.697 96.206 154.96L98.9412 157.221C99.7828 157.905 99.9932 159.062 99.4672 159.957L99.2568 160.325C98.6256 161.482 97.1528 161.955 95.943 161.324L92.6818 159.588C92.4188 159.378 92.3136 158.957 92.524 158.694Z" fill="#FFEBDE"/>
<path d="M102.465 148.542L105.358 144.492C105.621 144.124 106.095 144.071 106.41 144.334L109.356 146.859C110.25 147.596 110.461 148.911 109.935 149.91L109.724 150.331C109.04 151.646 107.462 152.119 106.147 151.435L102.623 149.489C102.36 149.331 102.255 148.858 102.465 148.542Z" fill="#FFEBDE"/>
<path d="M79.6372 159.273L94.523 161.64L92.7872 173.054L79.6372 159.273Z" fill="#FFCE89"/>
<path d="M80.1108 136.76L94.5232 138.917L92.7874 150.331L80.1108 136.76Z" fill="#FFCE89"/>
<path d="M86.2646 121.033L102.202 118.771L100.309 134.603L86.2646 121.033Z" fill="#FFCE89"/>
<path d="M82.6352 90.472C79.5844 92.1552 75.5868 95.6794 78.2694 101.728C78.6902 102.675 79.374 103.464 80.2156 104.095C85.6334 108.146 108.094 124.715 112.144 125.188C116.773 125.767 120.034 120.875 116.457 116.719C112.722 112.459 95.4696 96.5736 91.1038 93.2598L88.2634 91.1032C86.475 89.8408 84.2658 89.5252 82.6352 90.472Z" fill="#FFCE89"/>
<g opacity="0.1">
<path d="M91.0513 93.2598L88.2109 91.1032C86.5277 89.8408 84.4763 89.5252 82.8457 90.3142C84.4763 93.1546 89.1577 102.36 86.8959 108.987C89.5785 110.933 92.7345 113.195 95.8379 115.352L101.571 102.36C97.1003 98.3094 92.9449 94.68 91.0513 93.2598Z" fill="#414042"/>
</g>
<path opacity="0.2" d="M173.791 179.839C173.844 179.787 173.844 179.734 173.896 179.682L171.372 102.412C167.427 109.724 167.9 123.715 167.9 123.715C167.9 123.715 161.851 133.762 152.856 135.866L147.123 130.711L103.044 135.445L94.1548 141.389V173.475C95.2068 177.683 96.4692 181.891 98.0998 185.888C100.782 192.411 106.779 196.356 109.672 202.615C110.145 203.615 110.513 204.614 110.882 205.666L163.061 207.56C165.217 197.776 169.268 188.466 173.791 179.839Z" fill="#414042"/>
<path d="M165.059 203.667H97.3633C93.8917 203.667 91.0513 200.827 91.0513 197.355V51.1272C91.0513 47.6556 93.8917 44.8152 97.3633 44.8152H165.007C168.478 44.8152 171.319 47.6556 171.319 51.1272V197.355C171.371 200.827 168.478 203.667 165.059 203.667Z" fill="#2A3035"/>
<path d="M162.429 184.363H99.9932C97.5736 184.363 95.6274 182.364 95.6274 179.997V58.0704C95.6274 55.6508 97.6262 53.7046 99.9932 53.7046H162.429C164.849 53.7046 166.795 55.7034 166.795 58.0704V179.997C166.795 182.417 164.849 184.363 162.429 184.363Z" fill="#5ED2D1"/>
<path opacity="0.29" d="M162.429 53.652H144.545L95.5747 151.804V179.997C95.5747 182.417 97.5735 184.363 99.9405 184.363H118.14L166.743 85.8958V58.0178C166.795 55.6508 164.849 53.652 162.429 53.652Z" fill="white"/>
<path d="M129.975 199.617C132.909 199.617 135.288 197.238 135.288 194.304C135.288 191.37 132.909 188.992 129.975 188.992C127.041 188.992 124.663 191.37 124.663 194.304C124.663 197.238 127.041 199.617 129.975 199.617Z" fill="white"/>
<path d="M144.493 50.0752H120.507C119.823 50.0752 119.245 49.4966 119.245 48.8128C119.245 48.129 119.823 47.5504 120.507 47.5504H144.493C145.176 47.5504 145.755 48.129 145.755 48.8128C145.755 49.4966 145.176 50.0752 144.493 50.0752Z" fill="white"/>
<path d="M113.511 90.8402C121.587 90.8402 128.134 84.2934 128.134 76.2174C128.134 68.1415 121.587 61.5946 113.511 61.5946C105.436 61.5946 98.8887 68.1415 98.8887 76.2174C98.8887 84.2934 105.436 90.8402 113.511 90.8402Z" fill="white"/>
<path d="M113.511 88.2102C120.135 88.2102 125.504 82.8408 125.504 76.2174C125.504 69.594 120.135 64.2246 113.511 64.2246C106.888 64.2246 101.519 69.594 101.519 76.2174C101.519 82.8408 106.888 88.2102 113.511 88.2102Z" fill="#D0F1FC"/>
<path d="M113.459 83.1607C118.107 83.1607 121.875 79.6753 121.875 75.3759C121.875 71.0764 118.107 67.5911 113.459 67.5911C108.811 67.5911 105.043 71.0764 105.043 75.3759C105.043 79.6753 108.811 83.1607 113.459 83.1607Z" fill="#736357"/>
<path d="M113.354 84.423C117.305 84.423 120.507 81.2203 120.507 77.2694C120.507 73.3186 117.305 70.1158 113.354 70.1158C109.403 70.1158 106.2 73.3186 106.2 77.2694C106.2 81.2203 109.403 84.423 113.354 84.423Z" fill="#FFDDCC"/>
<path d="M112.933 71.7465C112.933 71.7465 115.668 78.2163 120.507 77.0591C120.507 77.0591 120.56 68.7483 113.669 69.5373L112.354 69.8003L112.933 71.7465Z" fill="#736357"/>
<path d="M113.722 71.7991C113.722 71.7991 110.987 78.2689 106.148 77.1117C106.148 77.1117 106.042 69.1165 112.986 69.9055L113.722 71.7991Z" fill="#736357"/>
<path d="M147.965 179.419C156.041 179.419 162.587 172.872 162.587 164.796C162.587 156.72 156.041 150.173 147.965 150.173C139.889 150.173 133.342 156.72 133.342 164.796C133.342 172.872 139.889 179.419 147.965 179.419Z" fill="white"/>
<path d="M147.964 176.789C154.588 176.789 159.957 171.419 159.957 164.796C159.957 158.172 154.588 152.803 147.964 152.803C141.341 152.803 135.972 158.172 135.972 164.796C135.972 171.419 141.341 176.789 147.964 176.789Z" fill="#D0F1FC"/>
<path d="M148.017 171.529C152.665 171.529 156.433 168.043 156.433 163.744C156.433 159.444 152.665 155.959 148.017 155.959C143.369 155.959 139.601 159.444 139.601 163.744C139.601 168.043 143.369 171.529 148.017 171.529Z" fill="#736357"/>
<path d="M147.859 172.791C151.81 172.791 155.013 169.588 155.013 165.637C155.013 161.687 151.81 158.484 147.859 158.484C143.908 158.484 140.706 161.687 140.706 165.637C140.706 169.588 143.908 172.791 147.859 172.791Z" fill="#FFDDCC"/>
<path d="M147.491 160.114C147.491 160.114 150.226 166.584 155.066 165.427C155.066 165.427 155.118 157.116 148.228 157.905L146.913 158.168L147.491 160.114Z" fill="#736357"/>
<path d="M148.227 160.167C148.227 160.167 145.492 166.637 140.653 165.48C140.653 165.48 140.548 157.484 147.491 158.273L148.227 160.167Z" fill="#736357"/>
<path d="M149.384 128.712C149.384 128.607 149.437 128.449 149.437 128.344V110.723C145.808 113.511 142.178 116.298 138.496 119.086C142.125 122.242 145.755 125.503 149.384 128.712Z" fill="white"/>
<path d="M131.658 121.664C137.286 117.351 142.862 113.09 148.49 108.777C148.069 108.461 147.596 108.303 147.07 108.303H116.299C115.931 108.303 115.51 108.409 115.194 108.566C120.665 112.932 126.188 117.298 131.658 121.664Z" fill="white"/>
<path d="M125.294 119.244C121.507 116.246 117.772 113.248 113.985 110.25C113.985 110.407 113.932 110.513 113.932 110.67V128.291C113.932 128.449 113.932 128.66 113.985 128.817C117.719 125.661 121.507 122.453 125.294 119.244C125.241 119.297 125.241 119.297 125.294 119.244Z" fill="white"/>
<path d="M136.813 120.349C135.288 121.506 133.71 122.716 132.184 123.873C131.816 124.189 131.238 123.978 130.922 123.715C129.607 122.663 128.292 121.611 126.924 120.559C126.872 120.612 126.819 120.717 126.714 120.77C122.927 123.978 119.087 127.239 115.3 130.448C115.615 130.606 115.931 130.658 116.299 130.658H147.07C147.491 130.658 147.859 130.553 148.175 130.395C144.388 127.082 140.6 123.715 136.813 120.349Z" fill="white"/>
<path d="M197.198 87.8946H147.386C144.756 87.8946 142.546 85.738 142.546 83.0554V65.0136C142.546 62.3836 144.703 60.1744 147.386 60.1744H197.198C199.828 60.1744 202.037 62.331 202.037 65.0136V83.0554C202.037 85.738 199.88 87.8946 197.198 87.8946Z" fill="#1F72A0"/>
<path d="M145.387 68.1697L135.34 73.5349C134.341 73.8505 134.341 75.2707 135.34 75.6389L145.703 79.1105" fill="#1F72A0"/>
<path d="M169.635 69.2216H147.912C147.386 69.2216 146.965 68.8008 146.965 68.2748C146.965 67.7488 147.386 67.328 147.912 67.328H169.635C170.161 67.328 170.582 67.7488 170.582 68.2748C170.582 68.8008 170.161 69.2216 169.635 69.2216Z" fill="white"/>
<path d="M169.635 80.0573H147.912C147.386 80.0573 146.965 79.6365 146.965 79.1105C146.965 78.5845 147.386 78.1637 147.912 78.1637H169.635C170.161 78.1637 170.582 78.5845 170.582 79.1105C170.582 79.6365 170.161 80.0573 169.635 80.0573Z" fill="white"/>
<path d="M195.147 80.0573H173.423C172.897 80.0573 172.476 79.6365 172.476 79.1105C172.476 78.5845 172.897 78.1637 173.423 78.1637H195.147C195.673 78.1637 196.093 78.5845 196.093 79.1105C196.093 79.6365 195.673 80.0573 195.147 80.0573Z" fill="white"/>
<path d="M182.522 74.5342H147.912C147.386 74.5342 146.965 74.1134 146.965 73.5874C146.965 73.0614 147.386 72.6406 147.912 72.6406H182.522C183.048 72.6406 183.469 73.0614 183.469 73.5874C183.469 74.1134 183.048 74.5342 182.522 74.5342Z" fill="white"/>
<path d="M182.312 69.2216H173.581C173.055 69.2216 172.634 68.8008 172.634 68.2748C172.634 67.7488 173.055 67.328 173.581 67.328H182.312C182.838 67.328 183.259 67.7488 183.259 68.2748C183.259 68.8008 182.838 69.2216 182.312 69.2216Z" fill="white"/>
<path d="M195.199 69.2216H186.468C185.942 69.2216 185.521 68.8008 185.521 68.2748C185.521 67.7488 185.942 67.328 186.468 67.328H195.199C195.725 67.328 196.146 67.7488 196.146 68.2748C196.094 68.8008 195.673 69.2216 195.199 69.2216Z" fill="white"/>
<path d="M195.199 74.7973H186.468C185.942 74.7973 185.521 74.3765 185.521 73.8505C185.521 73.3245 185.942 72.9037 186.468 72.9037H195.199C195.725 72.9037 196.146 73.3245 196.146 73.8505C196.094 74.3765 195.673 74.7973 195.199 74.7973Z" fill="white"/>
<path d="M77.0066 160.009C74.9552 161.692 72.3252 164.796 74.3766 168.741C74.6922 169.372 75.2182 169.845 75.7968 170.161C79.6892 172.265 92.0502 178.84 94.8906 178.63C98.0992 178.367 100.203 174.369 97.5732 171.949C94.8906 169.425 80.9516 159.746 80.9516 159.746C79.6366 159.01 78.1112 159.115 77.0066 160.009Z" fill="#FFCE89"/>
<path d="M76.849 137.286C74.1664 139.022 70.6422 142.388 73.2722 147.596C73.693 148.385 74.3242 149.068 75.1132 149.542C80.1102 152.75 100.887 165.848 104.569 166.006C108.777 166.163 111.565 161.587 108.146 158.168C104.674 154.644 88.5787 141.757 84.5285 139.127L81.8985 137.444C80.3205 136.497 78.3218 136.392 76.849 137.286Z" fill="#FFCE89"/>
<path d="M85.1599 121.401C82.0565 123.031 78.0589 126.503 80.6363 132.605C81.0571 133.551 81.6883 134.34 82.5299 134.972C87.8951 139.074 110.092 156.012 114.143 156.538C118.771 157.169 122.085 152.33 118.561 148.174C114.932 143.861 97.8891 127.713 93.5233 124.346L90.7355 122.19C89.0523 120.875 86.8431 120.559 85.1599 121.401Z" fill="#FFCE89"/>
<path d="M92.208 142.336C92.5762 142.756 92.997 143.072 93.4178 143.335C93.786 143.545 94.049 143.703 94.1542 143.756C93.6808 143.388 93.2074 143.072 92.734 142.704C92.5762 142.599 92.3658 142.441 92.208 142.336Z" fill="#F1DBCB"/>
<path opacity="0.1" d="M80.6359 132.657C81.0567 133.604 81.6879 134.393 82.5295 135.024C84.3179 136.392 87.8947 139.127 92.0501 142.23C87.0005 136.865 86.6323 121.138 86.6323 121.138V120.98C86.1063 121.033 85.5803 121.19 85.1069 121.453C82.0561 123.084 78.0585 126.503 80.6359 132.657Z" fill="#414042"/>
<path d="M92.7339 142.704C93.2073 143.019 93.6807 143.388 94.1541 143.756C94.3645 143.808 93.8385 143.44 92.7339 142.704Z" fill="#F1DBCB"/>
<g opacity="0.1">
<path d="M79.216 136.655C78.3744 136.655 77.5328 136.813 76.849 137.286C74.1664 139.022 70.6422 142.388 73.2722 147.596C73.693 148.385 74.3242 149.068 75.1132 149.542C76.7438 150.594 80.1101 152.75 84.0025 155.117C78.6373 148.911 78.7426 140.758 79.216 136.655Z" fill="#414042"/>
</g>
<g opacity="0.1">
<path d="M79.6366 159.273C78.6898 159.168 77.743 159.378 77.0066 160.009C74.9552 161.692 72.3252 164.796 74.3766 168.741C74.6922 169.372 75.2182 169.845 75.7968 170.161C77.217 170.95 79.847 172.37 82.6874 173.79C75.3234 166.374 79.6366 159.273 79.6366 159.273Z" fill="#414042"/>
</g>
<path d="M66.7498 175.368H116.562C119.192 175.368 121.401 173.212 121.401 170.529V152.487C121.401 149.857 119.245 147.648 116.562 147.648H66.7498C64.1198 147.648 61.9106 149.805 61.9106 152.487V170.529C61.9106 173.212 64.1198 175.368 66.7498 175.368Z" fill="#1F72A0"/>
<path d="M118.561 155.643L128.607 161.009C129.607 161.324 129.607 162.744 128.607 163.113L118.245 166.584" fill="#1F72A0"/>
<path d="M89.8937 157.484H68.1699C67.6439 157.484 67.2231 157.064 67.2231 156.538C67.2231 156.012 67.6439 155.591 68.1699 155.591H89.8937C90.4197 155.591 90.8405 156.012 90.8405 156.538C90.7879 157.064 90.3671 157.484 89.8937 157.484Z" fill="white"/>
<path d="M89.8937 168.32H68.1699C67.6439 168.32 67.2231 167.899 67.2231 167.373C67.2231 166.847 67.6439 166.426 68.1699 166.426H89.8937C90.4197 166.426 90.8405 166.847 90.8405 167.373C90.7879 167.952 90.3671 168.32 89.8937 168.32Z" fill="white"/>
<path d="M115.405 168.32H93.6284C93.1024 168.32 92.6816 167.899 92.6816 167.373C92.6816 166.847 93.1024 166.426 93.6284 166.426H115.352C115.878 166.426 116.299 166.847 116.299 167.373C116.299 167.952 115.878 168.32 115.405 168.32Z" fill="white"/>
<path d="M102.728 162.797H68.1172C67.5912 162.797 67.1704 162.376 67.1704 161.85C67.1704 161.324 67.5912 160.903 68.1172 160.903H102.728C103.254 160.903 103.675 161.324 103.675 161.85C103.675 162.429 103.254 162.797 102.728 162.797Z" fill="white"/>
<path d="M102.57 157.484H93.8389C93.3129 157.484 92.8921 157.064 92.8921 156.538C92.8921 156.012 93.3129 155.591 93.8389 155.591H102.57C103.096 155.591 103.517 156.012 103.517 156.538C103.465 157.064 103.044 157.484 102.57 157.484Z" fill="white"/>
<path d="M115.405 157.484H106.673C106.147 157.484 105.727 157.064 105.727 156.538C105.727 156.012 106.147 155.591 106.673 155.591H115.405C115.931 155.591 116.352 156.012 116.352 156.538C116.299 157.064 115.931 157.484 115.405 157.484Z" fill="white"/>
<path d="M115.405 163.06H106.673C106.147 163.06 105.727 162.639 105.727 162.113C105.727 161.587 106.147 161.166 106.673 161.166H115.405C115.931 161.166 116.352 161.587 116.352 162.113C116.299 162.692 115.931 163.06 115.405 163.06Z" fill="white"/>
<path d="M59.1224 80.9514C47.7081 80.9514 38.3979 71.6412 38.3979 60.227C38.3979 48.8128 47.7081 39.5026 59.1224 39.5026C70.5366 39.5026 79.8468 48.8128 79.8468 60.227C79.8468 71.6412 70.5366 80.9514 59.1224 80.9514Z" fill="white"/>
<path d="M59.1223 77.0063C49.8647 77.0063 42.3955 69.4845 42.3955 60.2795C42.3955 51.0219 49.9173 43.5527 59.1223 43.5527C68.3799 43.5527 75.8491 51.0745 75.8491 60.2795C75.9017 69.4845 68.3799 77.0063 59.1223 77.0063Z" fill="#D0F1FC"/>
<path d="M61.3318 66.2234L62.1734 63.0674L60.3324 62.2784C60.2798 61.8576 60.2272 61.4894 60.122 61.0686C60.0168 60.6478 59.859 60.227 59.6486 59.8062L60.8058 58.2282L58.4914 55.9664L56.9134 57.1762C56.1244 56.808 55.2828 56.5976 54.4412 56.545L53.6522 54.7566L50.4962 55.6508L50.7066 57.6496C49.9702 58.123 49.3916 58.7542 48.9182 59.4906L46.972 59.2802L46.1304 62.4362L47.9714 63.2252C48.024 63.646 48.0766 64.0142 48.1818 64.435C48.287 64.8558 48.4448 65.2766 48.6552 65.6974L47.498 67.2754L49.8124 69.5372L51.3904 68.3274C52.1794 68.6956 53.021 68.906 53.8626 68.9586L54.6516 70.747L57.8076 69.8528L57.5972 67.854C58.3336 67.3806 58.9122 66.7494 59.3856 66.013L61.3318 66.2234ZM54.862 65.3292C53.3892 65.75 51.9164 64.8558 51.4956 63.4356C51.0748 61.9628 51.969 60.49 53.3892 60.0692C54.862 59.6484 56.3348 60.5426 56.7556 61.9628C57.1238 63.4356 56.2822 64.961 54.862 65.3292Z" fill="#1F72A0"/>
<path d="M52.9683 58.5964C50.7065 59.2276 49.3389 61.5946 49.9701 63.8564C50.6013 66.1182 52.9683 67.4858 55.2301 66.8546C57.4919 66.2234 58.8595 63.8564 58.2283 61.5946C57.6497 59.3328 55.2827 57.9652 52.9683 58.5964ZM54.8093 65.1188C53.4943 65.487 52.1267 64.698 51.7585 63.383C51.3903 62.068 52.1793 60.7004 53.4943 60.3322C54.8093 59.964 56.1769 60.753 56.5451 62.068C56.8607 63.383 56.1243 64.7506 54.8093 65.1188Z" fill="#5ED2D1"/>
<path d="M71.5363 59.1224L72.1675 56.6502L70.7473 56.019C70.7473 55.7034 70.6947 55.3878 70.5895 55.0722C70.4843 54.704 70.3791 54.3884 70.2213 54.0728L71.1155 52.8104L69.2745 51.022L68.0121 51.9688C67.4335 51.6532 66.7497 51.4954 66.0659 51.4954L65.4347 50.0752L62.9625 50.759L63.1203 52.337C62.5417 52.7052 62.0683 53.2312 61.7001 53.7572L60.1747 53.5994L59.5435 56.0716L60.9637 56.7028C60.9637 57.0184 61.0163 57.334 61.1215 57.6496C61.2267 58.0178 61.3319 58.3334 61.4897 58.649L60.5955 59.9114L62.4365 61.6998L63.6989 60.753C64.2775 61.0686 64.9613 61.2264 65.6451 61.2264L66.2763 62.6466L68.7485 61.9628L68.5907 60.3848C69.1693 60.0166 69.6427 59.4906 70.0109 58.9646L71.5363 59.1224ZM66.4341 58.4386C65.2769 58.7542 64.1197 58.0704 63.8041 56.9658C63.4885 55.8086 64.1723 54.6514 65.2769 54.3358C66.4341 54.0202 67.5913 54.704 67.9069 55.8086C68.2225 56.9132 67.5387 58.123 66.4341 58.4386Z" fill="#1F72A0"/>
<path d="M64.9613 53.126C63.1729 53.5994 62.1209 55.4404 62.6469 57.2288C63.1203 59.0172 64.9613 60.0692 66.7497 59.5432C68.5381 59.0698 69.5901 57.2288 69.0641 55.4404C68.5907 53.7046 66.7497 52.6526 64.9613 53.126ZM66.3815 58.2282C65.3295 58.4912 64.2775 57.9126 64.0145 56.8606C63.7515 55.8086 64.3301 54.7566 65.3821 54.4936C66.4341 54.2306 67.4861 54.8092 67.7491 55.8612C68.0121 56.8606 67.3809 57.9126 66.3815 58.2282Z" fill="#5ED2D1"/>
<path opacity="0.29" d="M59.1224 39.5026C47.7081 39.5026 38.3979 48.8128 38.3979 60.227C38.3979 67.591 42.2378 74.0608 48.0764 77.7428L66.3286 40.8176C64.0667 39.976 61.6472 39.5026 59.1224 39.5026Z" fill="white"/>
<path d="M40.4495 164.007C29.0353 164.007 19.7251 154.697 19.7251 143.282C19.7251 131.868 29.0353 122.558 40.4495 122.558C51.8637 122.558 61.1739 131.868 61.1739 143.282C61.1739 154.749 51.8637 164.007 40.4495 164.007Z" fill="white"/>
<path d="M40.4493 160.062C31.1917 160.062 23.6699 152.54 23.6699 143.282C23.6699 134.025 31.1917 126.556 40.3967 126.556C49.6543 126.556 57.1235 134.077 57.1235 143.282C57.1761 152.54 49.6543 160.062 40.4493 160.062Z" fill="#D0F1FC"/>
<path d="M50.6541 134.498H36.5573C35.8735 134.498 35.2949 135.077 35.2949 135.761V140.074H47.9715C48.9183 140.074 49.7073 140.863 49.7073 141.81V143.493H50.6541C51.3379 143.493 51.9165 142.914 51.9165 142.23V135.813C51.9165 135.024 51.3379 134.498 50.6541 134.498Z" fill="#1F72A0"/>
<path d="M48.9182 150.015C48.9182 150.857 48.2344 151.541 47.3928 151.541H30.4556C29.614 151.541 28.9302 150.857 28.9302 150.015V142.283C28.9302 141.441 29.614 140.758 30.4556 140.758H47.3928C48.2344 140.758 48.9182 141.441 48.9182 142.283V150.015Z" fill="#5ED2D1"/>
<path d="M41.1332 144.071H31.4022C31.1918 144.071 30.9814 143.861 30.9814 143.651C30.9814 143.44 31.1918 143.23 31.4022 143.23H41.0806C41.291 143.23 41.5014 143.388 41.5014 143.651C41.5014 143.861 41.3436 144.071 41.1332 144.071Z" fill="white"/>
<path d="M46.8666 146.438H31.4022C31.1918 146.438 30.9814 146.281 30.9814 146.018C30.9814 145.807 31.1918 145.597 31.4022 145.597H46.814C47.0244 145.597 47.2348 145.755 47.2348 146.018C47.2874 146.228 47.077 146.438 46.8666 146.438Z" fill="white"/>
<path d="M46.7614 144.071H42.869C42.6586 144.071 42.4482 143.861 42.4482 143.651C42.4482 143.44 42.6586 143.23 42.869 143.23H46.7614C46.9718 143.23 47.1822 143.388 47.1822 143.651C47.1822 143.861 46.9718 144.071 46.7614 144.071Z" fill="white"/>
<path d="M37.0834 148.911H46.7618C46.9722 148.911 47.1826 148.7 47.1826 148.49C47.1826 148.279 46.9722 148.069 46.7618 148.069H37.0834C36.873 148.069 36.6626 148.279 36.6626 148.49C36.6626 148.753 36.8204 148.911 37.0834 148.911Z" fill="white"/>
<path d="M31.4022 148.911H35.2946C35.505 148.911 35.7154 148.7 35.7154 148.49C35.7154 148.279 35.505 148.069 35.2946 148.069H31.4022C31.1918 148.069 30.9814 148.279 30.9814 148.49C31.034 148.753 31.1918 148.911 31.4022 148.911Z" fill="white"/>
<path d="M41.9224 150.226L46.0252 154.749V149.542L41.9224 150.226Z" fill="#5ED2D1"/>
<path d="M45.3942 136.865H37.3464C37.136 136.865 37.0308 136.707 37.0308 136.55C37.0308 136.339 37.1886 136.234 37.3464 136.234H45.3942C45.6046 136.234 45.7098 136.392 45.7098 136.55C45.7624 136.707 45.6046 136.865 45.3942 136.865Z" fill="white"/>
<path d="M50.7067 138.864H37.8723C37.6619 138.864 37.5567 138.706 37.5567 138.548C37.5567 138.338 37.7145 138.233 37.3989 138.233H50.2333C50.9171 138.233 51.0749 138.391 51.0749 138.548C51.0223 138.706 50.8645 138.864 50.7067 138.864Z" fill="white"/>
<path d="M50.1282 136.865H46.9196C46.7092 136.865 46.604 136.707 46.604 136.55C46.604 136.339 46.7618 136.234 46.9196 136.234H50.1282C50.3386 136.234 50.4438 136.392 50.4438 136.55C50.4438 136.707 50.286 136.865 50.1282 136.865Z" fill="white"/>
<path opacity="0.29" d="M40.4495 122.558C29.0353 122.558 19.7251 131.868 19.7251 143.282C19.7251 150.909 23.8805 157.59 30.0347 161.166L48.2869 124.136C45.8673 123.137 43.2373 122.558 40.4495 122.558Z" fill="white"/>
<path d="M226.916 125.977C215.502 125.977 206.192 116.667 206.192 105.253C206.192 93.8384 215.502 84.5282 226.916 84.5282C238.33 84.5282 247.641 93.8384 247.641 105.253C247.641 116.667 238.33 125.977 226.916 125.977Z" fill="white"/>
<path d="M226.916 121.979C217.659 121.979 210.189 114.458 210.189 105.253C210.189 95.995 217.711 88.5258 226.916 88.5258C236.174 88.5258 243.643 96.0476 243.643 105.253C243.643 114.51 236.121 121.979 226.916 121.979Z" fill="#D0F1FC"/>
<path opacity="0.29" d="M226.916 84.5282C215.502 84.5282 206.192 93.8384 206.192 105.253C206.192 112.932 210.4 119.665 216.659 123.242L234.964 86.1588C232.492 85.1068 229.757 84.5282 226.916 84.5282Z" fill="white"/>
<path d="M208.612 202.352C197.197 202.352 187.887 193.042 187.887 181.628C187.887 170.214 197.197 160.903 208.612 160.903C220.026 160.903 229.336 170.214 229.336 181.628C229.336 193.095 220.026 202.352 208.612 202.352Z" fill="white"/>
<path d="M208.612 198.407C199.354 198.407 191.885 190.885 191.885 181.68C191.885 172.475 199.407 164.953 208.612 164.953C217.869 164.953 225.338 172.475 225.338 181.68C225.338 190.885 217.817 198.407 208.612 198.407Z" fill="#D0F1FC"/>
<path d="M208.612 182.522C206.35 182.522 204.509 184.363 204.509 186.625C204.509 188.887 206.35 190.728 208.612 190.728C210.874 190.728 212.715 188.887 212.715 186.625C212.715 184.363 210.874 182.522 208.612 182.522ZM208.612 188.781C207.402 188.781 206.455 187.835 206.455 186.625C206.455 185.415 207.402 184.468 208.612 184.468C209.822 184.468 210.769 185.415 210.769 186.625C210.769 187.835 209.769 188.781 208.612 188.781Z" fill="#5ED2D1"/>
<path opacity="0.5" d="M208.612 178.419C204.088 178.419 200.406 182.101 200.406 186.625C200.406 191.148 204.088 194.83 208.612 194.83C213.135 194.83 216.817 191.148 216.817 186.625C216.817 182.101 213.135 178.419 208.612 178.419ZM208.612 192.674C205.245 192.674 202.563 189.939 202.563 186.625C202.563 183.258 205.298 180.576 208.612 180.576C211.926 180.576 214.661 183.311 214.661 186.625C214.661 189.991 211.926 192.674 208.612 192.674Z" fill="#5ED2D1"/>
<path d="M208.612 167.847C204.825 167.847 201.774 170.897 201.774 174.685C201.774 178.472 208.612 186.625 208.612 186.625C208.612 186.625 215.45 178.472 215.45 174.685C215.45 170.897 212.399 167.847 208.612 167.847ZM208.612 177.841C206.876 177.841 205.456 176.42 205.456 174.685C205.456 172.949 206.876 171.529 208.612 171.529C210.348 171.529 211.768 172.949 211.768 174.685C211.768 176.42 210.348 177.841 208.612 177.841Z" fill="#1F72A0"/>
<path opacity="0.29" d="M208.612 160.903C197.197 160.903 187.887 170.214 187.887 181.628C187.887 189.044 191.78 195.514 197.671 199.196L215.923 162.218C213.609 161.377 211.136 160.903 208.612 160.903Z" fill="white"/>
<path d="M227.443 117.614C234.066 117.614 239.435 112.244 239.435 105.621C239.435 98.9973 234.066 93.6279 227.443 93.6279C220.819 93.6279 215.45 98.9973 215.45 105.621C215.45 112.244 220.819 117.614 227.443 117.614Z" fill="url(#paint1_linear_88_1147)"/>
<path d="M239.435 105.673C239.435 104.937 239.383 104.2 239.225 103.464L233.492 98.6775L226.601 107.619L223.498 111.775L229.967 117.35C235.385 116.193 239.435 111.407 239.435 105.673Z" fill="url(#paint2_linear_88_1147)"/>
<path d="M221.762 107.094L223.182 111.512C223.287 111.828 223.655 111.933 223.918 111.722L228.232 108.146C228.232 108.146 223.655 106.357 223.655 106.462C223.708 106.568 221.762 107.094 221.762 107.094Z" fill="#A9D1DB"/>
<path d="M233.176 98.5723C230.335 99.6769 221.236 103.412 217.817 104.832C217.343 105.042 217.396 105.673 217.869 105.831L221.814 107.094L223.234 111.512C223.287 111.67 223.445 111.828 223.603 111.828C223.76 111.828 223.918 108.251 223.918 108.251C223.918 108.251 228.074 111.302 230.02 112.774C230.493 113.143 231.177 112.88 231.282 112.248C231.861 109.25 233.334 101.728 233.807 99.1509C233.912 98.7827 233.544 98.4145 233.176 98.5723Z" fill="white"/>
<path d="M223.603 111.827C223.761 111.827 223.918 108.251 223.918 108.251L230.704 101.886C230.756 101.833 230.704 101.781 230.651 101.781L221.762 107.093L223.182 111.512C223.287 111.67 223.445 111.775 223.603 111.827Z" fill="#D1E2EA"/>
<path d="M236.602 91.8333L235.844 90.6793C237.007 89.8765 238.119 88.9231 239.079 87.769L240.141 88.6722C239.029 89.9266 237.866 90.9803 236.602 91.8333Z" fill="#FCB548"/>
<path d="M244.287 80.7444L242.972 80.3429C243.781 77.8341 244.287 74.9741 244.539 71.8631L245.905 71.9635C245.702 75.1748 245.146 78.1352 244.287 80.7444ZM245.905 63.0321L244.539 63.1826C244.489 62.8314 244.438 62.43 244.388 62.0787C244.236 60.8243 243.983 59.5197 243.68 58.2653C243.377 57.1113 243.023 55.9572 242.618 54.8032L243.933 54.3516C244.337 55.5558 244.742 56.76 245.045 57.9643C245.348 59.2689 245.601 60.6236 245.803 61.9282C245.803 62.2293 245.854 62.6307 245.905 63.0321ZM238.826 46.9255C237.36 44.5672 235.591 42.2089 233.619 39.9509L234.63 39.0478C236.652 41.3559 238.472 43.7644 239.989 46.223L238.826 46.9255ZM195.852 43.7142C194.891 43.9651 192.515 44.0152 190.998 43.1121C189.835 42.4598 188.925 41.3559 188.217 40.0513L189.431 39.4492C189.987 40.5531 190.745 41.4061 191.655 41.958C192.768 42.6103 194.739 42.6103 195.498 42.4096C195.599 42.4096 195.649 42.3594 195.649 42.3594C195.7 42.3092 195.801 42.2591 195.852 42.2089L196.61 43.3629C196.509 43.4131 196.458 43.4633 196.357 43.5135C196.256 43.5636 196.104 43.664 195.852 43.7142ZM227.35 33.8796C225.176 32.0231 222.799 30.2669 220.322 28.6613L221.08 27.5072C223.608 29.163 226.035 30.9192 228.26 32.8259L227.35 33.8796ZM201.615 35.686L200.25 35.3849C200.452 34.5319 200.503 33.6789 200.503 32.8259C200.503 31.6217 200.351 30.3673 200.048 29.163C199.896 28.5107 199.644 27.8083 199.391 27.1058L200.655 26.604C200.907 27.3567 201.16 28.0591 201.362 28.8118C201.716 30.1665 201.868 31.5213 201.868 32.8259C201.919 33.7793 201.818 34.7326 201.615 35.686ZM189.532 31.4711L188.268 30.9192C189.532 28.31 191.857 26.0521 194.689 24.6973L194.891 24.597L195.498 25.8514L195.346 25.9517C192.717 27.156 190.644 29.163 189.532 31.4711ZM212.334 25.3496C209.856 24.597 207.885 24.1454 206.924 24.0952C205.812 24.045 204.8 24.045 203.84 24.045L203.789 22.6903C204.8 22.6401 205.812 22.6903 206.974 22.7404C208.441 22.7906 211.221 23.5934 212.738 24.045L212.334 25.3496ZM194.942 19.8302C193.071 17.6726 190.897 15.7659 188.42 14.2105L189.178 13.0564C191.756 14.662 194.032 16.6691 196.003 18.927L194.942 19.8302Z" fill="#FCB548"/>
<path d="M180.533 10.6981C179.066 10.2967 177.651 10.0458 176.185 9.89529L176.336 8.54053C177.853 8.69106 179.37 8.99212 180.887 9.39353L180.533 10.6981Z" fill="#FCB548"/>
<path d="M178 13.493C178 12.7042 178.056 11.9155 178.224 11.1268L184.34 6L191.69 15.5775L195 20.0282L188.099 26C182.32 24.7606 178 19.6338 178 13.493Z" fill="url(#paint3_linear_88_1147)"/>
<path d="M191.369 16.2806L189.652 21.6228C189.524 22.0043 189.079 22.1315 188.761 21.8771L183.546 17.5526C183.546 17.5526 189.079 15.3903 189.079 15.5175C189.016 15.6447 191.369 16.2806 191.369 16.2806Z" fill="#A9D1DB"/>
<path d="M177.568 5.97798C181.002 7.3135 192.005 11.8289 196.138 13.546C196.711 13.8004 196.647 14.5635 196.075 14.7543L191.305 16.2806L189.588 21.6227C189.524 21.8135 189.333 22.0043 189.143 22.0043C188.952 22.0043 188.761 17.6797 188.761 17.6797C188.761 17.6797 183.737 21.3683 181.384 23.149C180.812 23.5942 179.985 23.2762 179.858 22.5131C179.158 18.8881 177.377 9.79377 176.805 6.67754C176.678 6.23237 177.123 5.78719 177.568 5.97798Z" fill="white"/>
<path d="M189.143 22.0044C188.952 22.0044 188.761 17.6798 188.761 17.6798L180.557 9.98461C180.494 9.92102 180.557 9.85742 180.621 9.85742L191.369 16.2807L189.652 21.6228C189.524 21.8136 189.334 21.9408 189.143 22.0044Z" fill="#D1E2EA"/>
</g>
<defs>
<linearGradient id="paint0_linear_88_1147" x1="137.287" y1="224.259" x2="137.287" y2="245.537" gradientUnits="userSpaceOnUse">
<stop stop-color="#015198"/>
<stop offset="1" stop-color="#000F47"/>
</linearGradient>
<linearGradient id="paint1_linear_88_1147" x1="215.49" y1="105.636" x2="239.439" y2="105.636" gradientUnits="userSpaceOnUse">
<stop stop-color="#0090C7"/>
<stop offset="1" stop-color="#42B3E5"/>
</linearGradient>
<linearGradient id="paint2_linear_88_1147" x1="227.559" y1="103.805" x2="236.704" y2="112.95" gradientUnits="userSpaceOnUse">
<stop stop-color="#0070AA"/>
<stop offset="0.0456336" stop-color="#0072AC" stop-opacity="0.949"/>
<stop offset="0.5619" stop-color="#0088C0" stop-opacity="0.3727"/>
<stop offset="0.8957" stop-color="#0090C7" stop-opacity="0"/>
</linearGradient>
<linearGradient id="paint3_linear_88_1147" x1="190.667" y1="11.4917" x2="180.873" y2="21.2458" gradientUnits="userSpaceOnUse">
<stop stop-color="#0070AA"/>
<stop offset="0.0456336" stop-color="#0072AC" stop-opacity="0.949"/>
<stop offset="0.5619" stop-color="#0088C0" stop-opacity="0.3727"/>
<stop offset="0.8957" stop-color="#0090C7" stop-opacity="0"/>
</linearGradient>
<clipPath id="clip0_88_1147">
<rect width="263" height="263" fill="white"/>
</clipPath>
</defs>
</svg>
