<svg width="160" height="143" viewBox="0 0 160 143" fill="none" xmlns="http://www.w3.org/2000/svg">
<path d="M20.9033 138H18.7773L18.791 136.64H20.9033C21.5186 136.64 22.0335 136.505 22.4482 136.236C22.8675 135.967 23.182 135.582 23.3916 135.081C23.6058 134.58 23.7129 133.983 23.7129 133.29V132.75C23.7129 132.212 23.6514 131.736 23.5283 131.321C23.4098 130.907 23.2321 130.558 22.9951 130.275C22.7627 129.993 22.4756 129.779 22.1338 129.633C21.7965 129.487 21.4069 129.414 20.9648 129.414H18.7363V128.047H20.9648C21.6257 128.047 22.2295 128.159 22.7764 128.382C23.3232 128.601 23.7949 128.917 24.1914 129.332C24.5924 129.747 24.9001 130.243 25.1143 130.822C25.3285 131.401 25.4355 132.048 25.4355 132.764V133.29C25.4355 134.006 25.3285 134.653 25.1143 135.231C24.9001 135.81 24.5924 136.307 24.1914 136.722C23.7904 137.132 23.3118 137.449 22.7559 137.672C22.2044 137.891 21.5869 138 20.9033 138ZM19.7275 128.047V138H18.0117V128.047H19.7275ZM31.1641 136.517V132.989C31.1641 132.725 31.1162 132.497 31.0205 132.306C30.9248 132.114 30.779 131.966 30.583 131.861C30.3916 131.757 30.1501 131.704 29.8584 131.704C29.5895 131.704 29.3571 131.75 29.1611 131.841C28.9652 131.932 28.8125 132.055 28.7031 132.21C28.5938 132.365 28.5391 132.54 28.5391 132.736H26.8984C26.8984 132.445 26.9691 132.162 27.1104 131.889C27.2516 131.615 27.4567 131.371 27.7256 131.157C27.9945 130.943 28.3158 130.774 28.6895 130.651C29.0632 130.528 29.4824 130.467 29.9473 130.467C30.5033 130.467 30.9954 130.56 31.4238 130.747C31.8568 130.934 32.1963 131.216 32.4424 131.595C32.693 131.968 32.8184 132.438 32.8184 133.003V136.291C32.8184 136.628 32.8411 136.931 32.8867 137.2C32.9368 137.465 33.0075 137.695 33.0986 137.891V138H31.4102C31.3327 137.822 31.2712 137.597 31.2256 137.323C31.1846 137.045 31.1641 136.776 31.1641 136.517ZM31.4033 133.502L31.417 134.521H30.2344C29.929 134.521 29.6602 134.55 29.4277 134.609C29.1953 134.664 29.0016 134.746 28.8467 134.855C28.6917 134.965 28.5755 135.097 28.498 135.252C28.4206 135.407 28.3818 135.582 28.3818 135.778C28.3818 135.974 28.4274 136.154 28.5186 136.318C28.6097 136.478 28.7419 136.603 28.915 136.694C29.0928 136.785 29.307 136.831 29.5576 136.831C29.8949 136.831 30.1888 136.763 30.4395 136.626C30.6947 136.485 30.8952 136.314 31.041 136.113C31.1868 135.908 31.2643 135.715 31.2734 135.532L31.8066 136.264C31.752 136.451 31.6585 136.651 31.5264 136.865C31.3942 137.079 31.221 137.285 31.0068 137.48C30.7972 137.672 30.5443 137.829 30.248 137.952C29.9564 138.075 29.6191 138.137 29.2363 138.137C28.7533 138.137 28.3226 138.041 27.9443 137.85C27.5661 137.654 27.2699 137.392 27.0557 137.063C26.8415 136.731 26.7344 136.355 26.7344 135.936C26.7344 135.544 26.8073 135.197 26.9531 134.896C27.1035 134.591 27.3223 134.336 27.6094 134.131C27.901 133.926 28.2565 133.771 28.6758 133.666C29.0951 133.557 29.5736 133.502 30.1113 133.502H31.4033ZM37.9316 130.604V131.807H33.7617V130.604H37.9316ZM34.9648 128.792H36.6123V135.956C36.6123 136.184 36.6442 136.359 36.708 136.482C36.7764 136.601 36.8698 136.681 36.9883 136.722C37.1068 136.763 37.2458 136.783 37.4053 136.783C37.5192 136.783 37.6286 136.776 37.7334 136.763C37.8382 136.749 37.9225 136.735 37.9863 136.722L37.9932 137.979C37.8564 138.021 37.6969 138.057 37.5146 138.089C37.3369 138.121 37.1318 138.137 36.8994 138.137C36.5212 138.137 36.1862 138.071 35.8945 137.938C35.6029 137.802 35.375 137.581 35.2109 137.275C35.0469 136.97 34.9648 136.564 34.9648 136.059V128.792ZM43.373 136.517V132.989C43.373 132.725 43.3252 132.497 43.2295 132.306C43.1338 132.114 42.988 131.966 42.792 131.861C42.6006 131.757 42.359 131.704 42.0674 131.704C41.7985 131.704 41.5661 131.75 41.3701 131.841C41.1742 131.932 41.0215 132.055 40.9121 132.21C40.8027 132.365 40.748 132.54 40.748 132.736H39.1074C39.1074 132.445 39.1781 132.162 39.3193 131.889C39.4606 131.615 39.6657 131.371 39.9346 131.157C40.2035 130.943 40.5247 130.774 40.8984 130.651C41.2721 130.528 41.6914 130.467 42.1562 130.467C42.7122 130.467 43.2044 130.56 43.6328 130.747C44.0658 130.934 44.4053 131.216 44.6514 131.595C44.902 131.968 45.0273 132.438 45.0273 133.003V136.291C45.0273 136.628 45.0501 136.931 45.0957 137.2C45.1458 137.465 45.2165 137.695 45.3076 137.891V138H43.6191C43.5417 137.822 43.4801 137.597 43.4346 137.323C43.3936 137.045 43.373 136.776 43.373 136.517ZM43.6123 133.502L43.626 134.521H42.4434C42.138 134.521 41.8691 134.55 41.6367 134.609C41.4043 134.664 41.2106 134.746 41.0557 134.855C40.9007 134.965 40.7845 135.097 40.707 135.252C40.6296 135.407 40.5908 135.582 40.5908 135.778C40.5908 135.974 40.6364 136.154 40.7275 136.318C40.8187 136.478 40.9508 136.603 41.124 136.694C41.3018 136.785 41.516 136.831 41.7666 136.831C42.1038 136.831 42.3978 136.763 42.6484 136.626C42.9036 136.485 43.1042 136.314 43.25 136.113C43.3958 135.908 43.4733 135.715 43.4824 135.532L44.0156 136.264C43.9609 136.451 43.8675 136.651 43.7354 136.865C43.6032 137.079 43.43 137.285 43.2158 137.48C43.0062 137.672 42.7533 137.829 42.457 137.952C42.1654 138.075 41.8281 138.137 41.4453 138.137C40.9622 138.137 40.5316 138.041 40.1533 137.85C39.7751 137.654 39.4788 137.392 39.2646 137.063C39.0505 136.731 38.9434 136.355 38.9434 135.936C38.9434 135.544 39.0163 135.197 39.1621 134.896C39.3125 134.591 39.5312 134.336 39.8184 134.131C40.11 133.926 40.4655 133.771 40.8848 133.666C41.304 133.557 41.7826 133.502 42.3203 133.502H43.6123ZM53.627 130.604V131.807H49.457V130.604H53.627ZM50.6602 128.792H52.3076V135.956C52.3076 136.184 52.3395 136.359 52.4033 136.482C52.4717 136.601 52.5651 136.681 52.6836 136.722C52.8021 136.763 52.9411 136.783 53.1006 136.783C53.2145 136.783 53.3239 136.776 53.4287 136.763C53.5335 136.749 53.6178 136.735 53.6816 136.722L53.6885 137.979C53.5518 138.021 53.3923 138.057 53.21 138.089C53.0322 138.121 52.8271 138.137 52.5947 138.137C52.2165 138.137 51.8815 138.071 51.5898 137.938C51.2982 137.802 51.0703 137.581 50.9062 137.275C50.7422 136.97 50.6602 136.564 50.6602 136.059V128.792ZM56.6621 130.604V138H55.0078V130.604H56.6621ZM54.8984 128.662C54.8984 128.411 54.9805 128.204 55.1445 128.04C55.3132 127.871 55.5456 127.787 55.8418 127.787C56.1335 127.787 56.3636 127.871 56.5322 128.04C56.7008 128.204 56.7852 128.411 56.7852 128.662C56.7852 128.908 56.7008 129.113 56.5322 129.277C56.3636 129.441 56.1335 129.523 55.8418 129.523C55.5456 129.523 55.3132 129.441 55.1445 129.277C54.9805 129.113 54.8984 128.908 54.8984 128.662ZM62.9785 136.469V127.5H64.6328V138H63.1357L62.9785 136.469ZM58.166 134.384V134.24C58.166 133.68 58.2321 133.169 58.3643 132.709C58.4964 132.244 58.6878 131.845 58.9385 131.513C59.1891 131.175 59.4945 130.918 59.8545 130.74C60.2145 130.558 60.6201 130.467 61.0713 130.467C61.5179 130.467 61.9098 130.553 62.2471 130.727C62.5843 130.9 62.8714 131.148 63.1084 131.472C63.3454 131.791 63.5345 132.174 63.6758 132.62C63.8171 133.062 63.9173 133.554 63.9766 134.097V134.555C63.9173 135.083 63.8171 135.566 63.6758 136.004C63.5345 136.441 63.3454 136.82 63.1084 137.139C62.8714 137.458 62.582 137.704 62.2402 137.877C61.903 138.05 61.5088 138.137 61.0576 138.137C60.611 138.137 60.2077 138.043 59.8477 137.856C59.4922 137.67 59.1891 137.408 58.9385 137.07C58.6878 136.733 58.4964 136.337 58.3643 135.881C58.2321 135.421 58.166 134.922 58.166 134.384ZM59.8135 134.24V134.384C59.8135 134.721 59.8431 135.035 59.9023 135.327C59.9661 135.619 60.0641 135.876 60.1963 136.1C60.3285 136.318 60.4993 136.492 60.709 136.619C60.9232 136.742 61.1784 136.804 61.4746 136.804C61.8483 136.804 62.1559 136.722 62.3975 136.558C62.639 136.394 62.8281 136.173 62.9648 135.895C63.1061 135.612 63.2018 135.298 63.252 134.951V133.714C63.2246 133.445 63.1676 133.194 63.0811 132.962C62.999 132.729 62.8874 132.527 62.7461 132.354C62.6048 132.176 62.4294 132.039 62.2197 131.943C62.0146 131.843 61.7708 131.793 61.4883 131.793C61.1875 131.793 60.9323 131.857 60.7227 131.984C60.513 132.112 60.3398 132.287 60.2031 132.511C60.071 132.734 59.973 132.994 59.9092 133.29C59.8454 133.586 59.8135 133.903 59.8135 134.24ZM70.5254 136.517V132.989C70.5254 132.725 70.4775 132.497 70.3818 132.306C70.2861 132.114 70.1403 131.966 69.9443 131.861C69.7529 131.757 69.5114 131.704 69.2197 131.704C68.9508 131.704 68.7184 131.75 68.5225 131.841C68.3265 131.932 68.1738 132.055 68.0645 132.21C67.9551 132.365 67.9004 132.54 67.9004 132.736H66.2598C66.2598 132.445 66.3304 132.162 66.4717 131.889C66.613 131.615 66.818 131.371 67.0869 131.157C67.3558 130.943 67.6771 130.774 68.0508 130.651C68.4245 130.528 68.8438 130.467 69.3086 130.467C69.8646 130.467 70.3568 130.56 70.7852 130.747C71.2181 130.934 71.5576 131.216 71.8037 131.595C72.0544 131.968 72.1797 132.438 72.1797 133.003V136.291C72.1797 136.628 72.2025 136.931 72.248 137.2C72.2982 137.465 72.3688 137.695 72.46 137.891V138H70.7715C70.694 137.822 70.6325 137.597 70.5869 137.323C70.5459 137.045 70.5254 136.776 70.5254 136.517ZM70.7646 133.502L70.7783 134.521H69.5957C69.2904 134.521 69.0215 134.55 68.7891 134.609C68.5566 134.664 68.363 134.746 68.208 134.855C68.0531 134.965 67.9368 135.097 67.8594 135.252C67.7819 135.407 67.7432 135.582 67.7432 135.778C67.7432 135.974 67.7887 136.154 67.8799 136.318C67.971 136.478 68.1032 136.603 68.2764 136.694C68.4541 136.785 68.6683 136.831 68.9189 136.831C69.2562 136.831 69.5501 136.763 69.8008 136.626C70.056 136.485 70.2565 136.314 70.4023 136.113C70.5482 135.908 70.6257 135.715 70.6348 135.532L71.168 136.264C71.1133 136.451 71.0199 136.651 70.8877 136.865C70.7555 137.079 70.5824 137.285 70.3682 137.48C70.1585 137.672 69.9056 137.829 69.6094 137.952C69.3177 138.075 68.9805 138.137 68.5977 138.137C68.1146 138.137 67.6839 138.041 67.3057 137.85C66.9274 137.654 66.6312 137.392 66.417 137.063C66.2028 136.731 66.0957 136.355 66.0957 135.936C66.0957 135.544 66.1686 135.197 66.3145 134.896C66.4648 134.591 66.6836 134.336 66.9707 134.131C67.2624 133.926 67.6178 133.771 68.0371 133.666C68.4564 133.557 68.9349 133.502 69.4727 133.502H70.7646ZM75.5635 127.5V138H73.9092V127.5H75.5635ZM80.1572 130.604L76.9375 134.172L75.1738 135.977L74.7432 134.582L76.0762 132.935L78.168 130.604H80.1572ZM78.5234 138L76.124 134.527L77.1631 133.372L80.4307 138H78.5234ZM88.0801 130.604V131.807H83.9102V130.604H88.0801ZM85.1133 128.792H86.7607V135.956C86.7607 136.184 86.7926 136.359 86.8564 136.482C86.9248 136.601 87.0182 136.681 87.1367 136.722C87.2552 136.763 87.3942 136.783 87.5537 136.783C87.6676 136.783 87.777 136.776 87.8818 136.763C87.9867 136.749 88.071 136.735 88.1348 136.722L88.1416 137.979C88.0049 138.021 87.8454 138.057 87.6631 138.089C87.4854 138.121 87.2803 138.137 87.0479 138.137C86.6696 138.137 86.3346 138.071 86.043 137.938C85.7513 137.802 85.5234 137.581 85.3594 137.275C85.1953 136.97 85.1133 136.564 85.1133 136.059V128.792ZM92.6123 138.137C92.0654 138.137 91.571 138.048 91.1289 137.87C90.6914 137.688 90.3177 137.435 90.0078 137.111C89.7025 136.788 89.4678 136.407 89.3037 135.97C89.1396 135.532 89.0576 135.061 89.0576 134.555V134.281C89.0576 133.702 89.1419 133.178 89.3105 132.709C89.4792 132.24 89.7139 131.839 90.0146 131.506C90.3154 131.169 90.6709 130.911 91.0811 130.733C91.4912 130.556 91.9355 130.467 92.4141 130.467C92.9427 130.467 93.4053 130.556 93.8018 130.733C94.1982 130.911 94.5264 131.162 94.7861 131.485C95.0505 131.804 95.2464 132.185 95.374 132.627C95.5062 133.069 95.5723 133.557 95.5723 134.09V134.794H89.8574V133.611H93.9453V133.481C93.9362 133.185 93.877 132.907 93.7676 132.647C93.6628 132.388 93.501 132.178 93.2822 132.019C93.0635 131.859 92.7718 131.779 92.4072 131.779C92.1338 131.779 91.89 131.839 91.6758 131.957C91.4661 132.071 91.2907 132.237 91.1494 132.456C91.0081 132.675 90.8988 132.939 90.8213 133.249C90.7484 133.554 90.7119 133.898 90.7119 134.281V134.555C90.7119 134.878 90.7552 135.179 90.8418 135.457C90.9329 135.73 91.0651 135.97 91.2383 136.175C91.4115 136.38 91.6211 136.542 91.8672 136.66C92.1133 136.774 92.3936 136.831 92.708 136.831C93.1045 136.831 93.4577 136.751 93.7676 136.592C94.0775 136.432 94.3464 136.207 94.5742 135.915L95.4424 136.756C95.2829 136.988 95.0755 137.212 94.8203 137.426C94.5651 137.635 94.2529 137.806 93.8838 137.938C93.5192 138.071 93.0954 138.137 92.6123 138.137ZM98.5117 132.012V138H96.8643V130.604H98.4365L98.5117 132.012ZM100.774 130.556L100.761 132.087C100.66 132.069 100.551 132.055 100.433 132.046C100.319 132.037 100.205 132.032 100.091 132.032C99.8083 132.032 99.5599 132.073 99.3457 132.155C99.1315 132.233 98.9515 132.347 98.8057 132.497C98.6644 132.643 98.555 132.821 98.4775 133.03C98.4001 133.24 98.3545 133.475 98.3408 133.734L97.9648 133.762C97.9648 133.297 98.0104 132.866 98.1016 132.47C98.1927 132.073 98.3294 131.725 98.5117 131.424C98.6986 131.123 98.931 130.888 99.209 130.72C99.4915 130.551 99.8174 130.467 100.187 130.467C100.287 130.467 100.394 130.476 100.508 130.494C100.626 130.512 100.715 130.533 100.774 130.556ZM105.956 135.997C105.956 135.833 105.915 135.685 105.833 135.553C105.751 135.416 105.594 135.293 105.361 135.184C105.133 135.074 104.796 134.974 104.35 134.883C103.958 134.796 103.598 134.694 103.27 134.575C102.946 134.452 102.668 134.304 102.436 134.131C102.203 133.958 102.023 133.753 101.896 133.516C101.768 133.279 101.704 133.005 101.704 132.695C101.704 132.395 101.77 132.11 101.902 131.841C102.035 131.572 102.224 131.335 102.47 131.13C102.716 130.925 103.014 130.763 103.365 130.645C103.721 130.526 104.117 130.467 104.555 130.467C105.174 130.467 105.705 130.572 106.147 130.781C106.594 130.986 106.936 131.267 107.173 131.622C107.41 131.973 107.528 132.369 107.528 132.812H105.881C105.881 132.616 105.831 132.433 105.73 132.265C105.635 132.091 105.489 131.952 105.293 131.848C105.097 131.738 104.851 131.684 104.555 131.684C104.272 131.684 104.037 131.729 103.851 131.82C103.668 131.907 103.532 132.021 103.44 132.162C103.354 132.303 103.311 132.458 103.311 132.627C103.311 132.75 103.333 132.862 103.379 132.962C103.429 133.058 103.511 133.146 103.625 133.229C103.739 133.306 103.894 133.379 104.09 133.447C104.29 133.516 104.541 133.582 104.842 133.646C105.407 133.764 105.892 133.917 106.298 134.104C106.708 134.286 107.022 134.523 107.241 134.814C107.46 135.102 107.569 135.466 107.569 135.908C107.569 136.236 107.499 136.537 107.357 136.811C107.221 137.079 107.02 137.314 106.756 137.515C106.492 137.711 106.175 137.863 105.806 137.973C105.441 138.082 105.031 138.137 104.575 138.137C103.905 138.137 103.338 138.018 102.873 137.781C102.408 137.54 102.055 137.232 101.813 136.858C101.576 136.48 101.458 136.088 101.458 135.683H103.051C103.069 135.988 103.153 136.232 103.304 136.414C103.459 136.592 103.65 136.722 103.878 136.804C104.11 136.881 104.35 136.92 104.596 136.92C104.892 136.92 105.14 136.881 105.341 136.804C105.541 136.722 105.694 136.612 105.799 136.476C105.904 136.334 105.956 136.175 105.956 135.997ZM112.272 138.137C111.726 138.137 111.231 138.048 110.789 137.87C110.352 137.688 109.978 137.435 109.668 137.111C109.363 136.788 109.128 136.407 108.964 135.97C108.8 135.532 108.718 135.061 108.718 134.555V134.281C108.718 133.702 108.802 133.178 108.971 132.709C109.139 132.24 109.374 131.839 109.675 131.506C109.976 131.169 110.331 130.911 110.741 130.733C111.151 130.556 111.596 130.467 112.074 130.467C112.603 130.467 113.065 130.556 113.462 130.733C113.858 130.911 114.187 131.162 114.446 131.485C114.711 131.804 114.907 132.185 115.034 132.627C115.166 133.069 115.232 133.557 115.232 134.09V134.794H109.518V133.611H113.605V133.481C113.596 133.185 113.537 132.907 113.428 132.647C113.323 132.388 113.161 132.178 112.942 132.019C112.724 131.859 112.432 131.779 112.067 131.779C111.794 131.779 111.55 131.839 111.336 131.957C111.126 132.071 110.951 132.237 110.81 132.456C110.668 132.675 110.559 132.939 110.481 133.249C110.409 133.554 110.372 133.898 110.372 134.281V134.555C110.372 134.878 110.415 135.179 110.502 135.457C110.593 135.73 110.725 135.97 110.898 136.175C111.072 136.38 111.281 136.542 111.527 136.66C111.773 136.774 112.054 136.831 112.368 136.831C112.765 136.831 113.118 136.751 113.428 136.592C113.738 136.432 114.007 136.207 114.234 135.915L115.103 136.756C114.943 136.988 114.736 137.212 114.48 137.426C114.225 137.635 113.913 137.806 113.544 137.938C113.179 138.071 112.756 138.137 112.272 138.137ZM121.029 136.469V127.5H122.684V138H121.187L121.029 136.469ZM116.217 134.384V134.24C116.217 133.68 116.283 133.169 116.415 132.709C116.547 132.244 116.739 131.845 116.989 131.513C117.24 131.175 117.545 130.918 117.905 130.74C118.265 130.558 118.671 130.467 119.122 130.467C119.569 130.467 119.961 130.553 120.298 130.727C120.635 130.9 120.922 131.148 121.159 131.472C121.396 131.791 121.585 132.174 121.727 132.62C121.868 133.062 121.968 133.554 122.027 134.097V134.555C121.968 135.083 121.868 135.566 121.727 136.004C121.585 136.441 121.396 136.82 121.159 137.139C120.922 137.458 120.633 137.704 120.291 137.877C119.954 138.05 119.56 138.137 119.108 138.137C118.662 138.137 118.258 138.043 117.898 137.856C117.543 137.67 117.24 137.408 116.989 137.07C116.739 136.733 116.547 136.337 116.415 135.881C116.283 135.421 116.217 134.922 116.217 134.384ZM117.864 134.24V134.384C117.864 134.721 117.894 135.035 117.953 135.327C118.017 135.619 118.115 135.876 118.247 136.1C118.379 136.318 118.55 136.492 118.76 136.619C118.974 136.742 119.229 136.804 119.525 136.804C119.899 136.804 120.207 136.722 120.448 136.558C120.69 136.394 120.879 136.173 121.016 135.895C121.157 135.612 121.253 135.298 121.303 134.951V133.714C121.275 133.445 121.218 133.194 121.132 132.962C121.05 132.729 120.938 132.527 120.797 132.354C120.656 132.176 120.48 132.039 120.271 131.943C120.065 131.843 119.822 131.793 119.539 131.793C119.238 131.793 118.983 131.857 118.773 131.984C118.564 132.112 118.391 132.287 118.254 132.511C118.122 132.734 118.024 132.994 117.96 133.29C117.896 133.586 117.864 133.903 117.864 134.24ZM126.17 130.604V138H124.516V130.604H126.17ZM124.406 128.662C124.406 128.411 124.488 128.204 124.652 128.04C124.821 127.871 125.053 127.787 125.35 127.787C125.641 127.787 125.871 127.871 126.04 128.04C126.209 128.204 126.293 128.411 126.293 128.662C126.293 128.908 126.209 129.113 126.04 129.277C125.871 129.441 125.641 129.523 125.35 129.523C125.053 129.523 124.821 129.441 124.652 129.277C124.488 129.113 124.406 128.908 124.406 128.662ZM132.145 136.517V132.989C132.145 132.725 132.097 132.497 132.001 132.306C131.905 132.114 131.759 131.966 131.563 131.861C131.372 131.757 131.131 131.704 130.839 131.704C130.57 131.704 130.338 131.75 130.142 131.841C129.946 131.932 129.793 132.055 129.684 132.21C129.574 132.365 129.52 132.54 129.52 132.736H127.879C127.879 132.445 127.95 132.162 128.091 131.889C128.232 131.615 128.437 131.371 128.706 131.157C128.975 130.943 129.296 130.774 129.67 130.651C130.044 130.528 130.463 130.467 130.928 130.467C131.484 130.467 131.976 130.56 132.404 130.747C132.837 130.934 133.177 131.216 133.423 131.595C133.674 131.968 133.799 132.438 133.799 133.003V136.291C133.799 136.628 133.822 136.931 133.867 137.2C133.917 137.465 133.988 137.695 134.079 137.891V138H132.391C132.313 137.822 132.252 137.597 132.206 137.323C132.165 137.045 132.145 136.776 132.145 136.517ZM132.384 133.502L132.397 134.521H131.215C130.91 134.521 130.641 134.55 130.408 134.609C130.176 134.664 129.982 134.746 129.827 134.855C129.672 134.965 129.556 135.097 129.479 135.252C129.401 135.407 129.362 135.582 129.362 135.778C129.362 135.974 129.408 136.154 129.499 136.318C129.59 136.478 129.722 136.603 129.896 136.694C130.073 136.785 130.287 136.831 130.538 136.831C130.875 136.831 131.169 136.763 131.42 136.626C131.675 136.485 131.876 136.314 132.021 136.113C132.167 135.908 132.245 135.715 132.254 135.532L132.787 136.264C132.732 136.451 132.639 136.651 132.507 136.865C132.375 137.079 132.201 137.285 131.987 137.48C131.778 137.672 131.525 137.829 131.229 137.952C130.937 138.075 130.6 138.137 130.217 138.137C129.734 138.137 129.303 138.041 128.925 137.85C128.547 137.654 128.25 137.392 128.036 137.063C127.822 136.731 127.715 136.355 127.715 135.936C127.715 135.544 127.788 135.197 127.934 134.896C128.084 134.591 128.303 134.336 128.59 134.131C128.882 133.926 129.237 133.771 129.656 133.666C130.076 133.557 130.554 133.502 131.092 133.502H132.384Z" fill="#4D4D4D"/>
<path d="M93.4092 93.7274C136.238 84.7141 162.936 -16.1727 111.795 4.3487C60.655 24.8701 27.0006 1.92432 16.8162 32.4491C5.97295 64.9488 52.6622 102.303 93.4092 93.7274Z" fill="#F5F4F4"/>
<g filter="url(#filter0_d_369_780)">
<path d="M45.2308 69.6161L53.5134 58.3719C54.0052 57.7043 54.9763 57.632 55.5615 58.2193C56.0405 58.7001 56.0894 59.4613 55.6757 59.9993L47.1634 71.0706C46.8058 71.5357 46.1661 71.6771 45.6458 71.406C44.9876 71.0631 44.7907 70.2137 45.2308 69.6161Z" fill="#D1D1D1"/>
<g filter="url(#filter1_d_369_780)">
<path d="M52.7105 88.0643C32.2051 97.656 16.5153 77.6628 10.6601 65.404C10.3287 64.7102 10.4495 63.8898 10.9471 63.3036L34.2682 35.8257C35.1464 34.7911 36.7814 34.9183 37.5341 36.0474C52.3844 58.3237 68.0718 57.3783 76.4495 52.9222C77.844 52.1804 79.3197 52.9814 78.7149 54.4405C75.2313 62.8446 61.155 79.2047 53.3042 87.6334C53.1358 87.8142 52.9343 87.9596 52.7105 88.0643Z" fill="url(#paint0_linear_369_780)" shape-rendering="crispEdges"/>
</g>
<path d="M19.7008 60.9674C24.182 55.7262 31.3821 47.3164 34.4781 43.7376C35.1756 42.9314 36.4296 43.1086 36.892 44.0692C37.1495 44.604 37.0717 45.2398 36.6929 45.6967L22.2577 63.1132C21.577 63.9345 20.3109 63.9152 19.6556 63.0733C19.1687 62.4478 19.1857 61.5698 19.7008 60.9674Z" fill="url(#paint1_linear_369_780)"/>
<path d="M20.0963 70.0262L39.0034 48.3518C39.5285 47.7497 40.4902 47.8434 40.8893 48.5354C41.1327 48.9574 41.0876 49.4863 40.7764 49.8611L22.3984 71.9859C21.8028 72.7029 20.7066 72.7153 20.0948 72.012C19.5995 71.4425 19.6001 70.5949 20.0963 70.0262Z" fill="url(#paint2_linear_369_780)"/>
<path d="M31.2664 67.6766L43.4244 52.2206C43.7671 51.7848 44.4069 51.7297 44.8191 52.1004C45.1916 52.4354 45.2435 53.0007 44.9381 53.3978L32.9519 68.9874C32.6087 69.4337 31.9779 69.5369 31.5104 69.223C30.9947 68.8767 30.8824 68.1649 31.2664 67.6766Z" fill="url(#paint3_linear_369_780)"/>
<path d="M36.7459 70.0621L48.9039 54.6061C49.2466 54.1703 49.8864 54.1152 50.2986 54.4859C50.6711 54.8209 50.723 55.3862 50.4176 55.7833L38.4314 71.3729C38.0882 71.8192 37.4574 71.9223 36.9899 71.6085C36.4742 71.2622 36.3619 70.5504 36.7459 70.0621Z" fill="url(#paint4_linear_369_780)"/>
</g>
<g filter="url(#filter2_d_369_780)">
<path d="M88.4796 47.4726C101.2 51.0475 114.593 42.7809 120.694 37.3022C121.138 36.9032 121.818 36.941 122.181 37.3944L145.185 66.1526C145.455 66.4896 145.467 66.9716 145.207 67.3302C135.097 81.2719 115.173 82.714 106.187 81.6562C106.071 81.6425 105.973 81.6169 105.877 81.5531C102.847 79.5515 92.8005 60.4007 87.1108 48.9954C86.7002 48.1723 87.5869 47.2217 88.4796 47.4726Z" fill="url(#paint5_linear_369_780)"/>
<path d="M111.166 52.9532L111.659 52.8439C112.076 52.7516 112.498 52.9281 112.714 53.2847L124.843 73.2762C125.13 73.7476 124.964 74.3714 124.477 74.6605L123.871 75.0201C123.393 75.304 122.784 75.1574 122.507 74.6917L110.491 54.45C110.145 53.8672 110.49 53.1031 111.166 52.9532Z" fill="url(#paint6_linear_369_780)"/>
<path d="M104.411 50.4527C104.594 50.4396 104.77 50.4292 104.93 50.4232C105.252 50.4112 105.535 50.5909 105.691 50.8676L119.48 75.4056C119.788 75.9546 119.5 76.6604 118.886 76.8578L117.947 77.1596C117.486 77.3077 116.994 77.1132 116.772 76.6957L103.611 51.8928C103.282 51.2737 103.699 50.5037 104.411 50.4527Z" fill="url(#paint7_linear_369_780)"/>
<path d="M99.1422 51.4576L99.1873 51.4618C99.502 51.4911 99.7799 51.6671 99.9372 51.9363L114.082 76.1566C114.394 76.6903 114.132 77.3877 113.538 77.6078L112.869 77.8557C112.405 78.0276 111.893 77.8436 111.66 77.4209L98.1388 52.9485C97.7515 52.2475 98.334 51.3822 99.1422 51.4576Z" fill="url(#paint8_linear_369_780)"/>
<path d="M93.628 51.3836L94.67 51.2162C95.086 51.1494 95.4928 51.3461 95.6894 51.7092L109.268 76.7824C109.584 77.3646 109.235 78.0999 108.575 78.2463L108.051 78.3625C107.623 78.4574 107.19 78.2684 106.98 77.8949L92.883 52.8729C92.5425 52.2685 92.929 51.4959 93.628 51.3836Z" fill="url(#paint9_linear_369_780)"/>
<path d="M113.865 47.5408C115.035 46.3153 118.636 44.2537 120.956 43.0247C121.386 42.797 121.908 42.9081 122.197 43.283L139.265 65.4288C139.42 65.6302 139.496 65.8912 139.364 66.1159C138.352 67.8377 132.334 71.384 128.799 73.2937C128.456 73.4788 128.049 73.4555 127.789 73.1797C124.9 70.1175 117.492 55.8849 113.773 48.3898C113.633 48.1077 113.642 47.7748 113.865 47.5408Z" fill="url(#paint10_linear_369_780)"/>
</g>
<g filter="url(#filter3_d_369_780)">
<g filter="url(#filter4_d_369_780)">
<path d="M54.5487 77.0008C54.6432 54.981 72.7344 36.4244 82.2086 29.5628C82.4441 29.3923 82.7348 29.342 83.017 29.4117L114.823 37.2606C115.95 37.5387 115.909 40.1479 114.838 40.5949C99.5288 46.9834 85.3171 70.7158 81.9421 84.1804C81.8628 84.4971 81.6459 84.7542 81.3274 84.826C76.9879 85.8043 64.4934 81.1578 55.2135 77.9349C54.8152 77.7966 54.5469 77.4223 54.5487 77.0008Z" fill="url(#paint11_linear_369_780)" shape-rendering="crispEdges"/>
</g>
<path d="M56.7875 73.1277C56.882 51.108 74.9732 32.5514 84.4474 25.6898C84.6829 25.5192 84.9735 25.469 85.2558 25.5387L117.062 33.3876C118.189 33.6657 118.115 36.132 117.019 36.515C100.876 42.1582 83.5333 63.3832 80.0732 76.8213C79.9917 77.1374 79.7737 77.3936 79.461 77.4872C75.4039 78.701 66.5526 77.1333 57.4559 74.06C57.0565 73.925 56.7857 73.5493 56.7875 73.1277Z" fill="url(#paint12_linear_369_780)"/>
<path d="M44.837 70.7355C44.5381 48.1213 63.3929 29.0438 72.8576 22.3318L112.087 32.0125C94.1535 32.6321 82.4471 63.5072 78.8355 78.8673C74.95 80.4162 54.5509 74.0915 44.837 70.7355Z" fill="white"/>
</g>
<defs>
<filter id="filter0_d_369_780" x="10.4741" y="35.1199" width="82.3804" height="63.4668" filterUnits="userSpaceOnUse" color-interpolation-filters="sRGB">
<feFlood flood-opacity="0" result="BackgroundImageFix"/>
<feColorMatrix in="SourceAlpha" type="matrix" values="0 0 0 0 0 0 0 0 0 0 0 0 0 0 0 0 0 0 127 0" result="hardAlpha"/>
<feOffset dx="10" dy="4"/>
<feGaussianBlur stdDeviation="2"/>
<feComposite in2="hardAlpha" operator="out"/>
<feColorMatrix type="matrix" values="0 0 0 0 0.445833 0 0 0 0 0.445833 0 0 0 0 0.445833 0 0 0 0.15 0"/>
<feBlend mode="normal" in2="BackgroundImageFix" result="effect1_dropShadow_369_780"/>
<feBlend mode="normal" in="SourceGraphic" in2="effect1_dropShadow_369_780" result="shape"/>
</filter>
<filter id="filter1_d_369_780" x="0.474121" y="29.1199" width="88.3804" height="75.4668" filterUnits="userSpaceOnUse" color-interpolation-filters="sRGB">
<feFlood flood-opacity="0" result="BackgroundImageFix"/>
<feColorMatrix in="SourceAlpha" type="matrix" values="0 0 0 0 0 0 0 0 0 0 0 0 0 0 0 0 0 0 127 0" result="hardAlpha"/>
<feOffset dy="4"/>
<feGaussianBlur stdDeviation="5"/>
<feComposite in2="hardAlpha" operator="out"/>
<feColorMatrix type="matrix" values="0 0 0 0 0 0 0 0 0 0 0 0 0 0 0 0 0 0 0.12 0"/>
<feBlend mode="normal" in2="BackgroundImageFix" result="effect1_dropShadow_369_780"/>
<feBlend mode="normal" in="SourceGraphic" in2="effect1_dropShadow_369_780" result="shape"/>
</filter>
<filter id="filter2_d_369_780" x="87.0073" y="37.0269" width="72.3877" height="52.9041" filterUnits="userSpaceOnUse" color-interpolation-filters="sRGB">
<feFlood flood-opacity="0" result="BackgroundImageFix"/>
<feColorMatrix in="SourceAlpha" type="matrix" values="0 0 0 0 0 0 0 0 0 0 0 0 0 0 0 0 0 0 127 0" result="hardAlpha"/>
<feOffset dx="10" dy="4"/>
<feGaussianBlur stdDeviation="2"/>
<feComposite in2="hardAlpha" operator="out"/>
<feColorMatrix type="matrix" values="0 0 0 0 0.445833 0 0 0 0 0.445833 0 0 0 0 0.445833 0 0 0 0.15 0"/>
<feBlend mode="normal" in2="BackgroundImageFix" result="effect1_dropShadow_369_780"/>
<feBlend mode="normal" in="SourceGraphic" in2="effect1_dropShadow_369_780" result="shape"/>
</filter>
<filter id="filter3_d_369_780" x="44.8335" y="22.3318" width="87.041" height="70.627" filterUnits="userSpaceOnUse" color-interpolation-filters="sRGB">
<feFlood flood-opacity="0" result="BackgroundImageFix"/>
<feColorMatrix in="SourceAlpha" type="matrix" values="0 0 0 0 0 0 0 0 0 0 0 0 0 0 0 0 0 0 127 0" result="hardAlpha"/>
<feOffset dx="10" dy="4"/>
<feGaussianBlur stdDeviation="2"/>
<feComposite in2="hardAlpha" operator="out"/>
<feColorMatrix type="matrix" values="0 0 0 0 0.445833 0 0 0 0 0.445833 0 0 0 0 0.445833 0 0 0 0.15 0"/>
<feBlend mode="normal" in2="BackgroundImageFix" result="effect1_dropShadow_369_780"/>
<feBlend mode="normal" in="SourceGraphic" in2="effect1_dropShadow_369_780" result="shape"/>
</filter>
<filter id="filter4_d_369_780" x="50.5488" y="29.3813" width="69.106" height="63.5774" filterUnits="userSpaceOnUse" color-interpolation-filters="sRGB">
<feFlood flood-opacity="0" result="BackgroundImageFix"/>
<feColorMatrix in="SourceAlpha" type="matrix" values="0 0 0 0 0 0 0 0 0 0 0 0 0 0 0 0 0 0 127 0" result="hardAlpha"/>
<feOffset dy="4"/>
<feGaussianBlur stdDeviation="2"/>
<feComposite in2="hardAlpha" operator="out"/>
<feColorMatrix type="matrix" values="0 0 0 0 0 0 0 0 0 0 0 0 0 0 0 0 0 0 0.16 0"/>
<feBlend mode="normal" in2="BackgroundImageFix" result="effect1_dropShadow_369_780"/>
<feBlend mode="normal" in="SourceGraphic" in2="effect1_dropShadow_369_780" result="shape"/>
</filter>
<linearGradient id="paint0_linear_369_780" x1="39.5842" y1="53.6365" x2="48.8363" y2="86.3357" gradientUnits="userSpaceOnUse">
<stop stop-color="#EAE4E4" stop-opacity="0.88"/>
<stop offset="1" stop-color="white"/>
</linearGradient>
<linearGradient id="paint1_linear_369_780" x1="26.0706" y1="44.1981" x2="30.063" y2="62.7475" gradientUnits="userSpaceOnUse">
<stop stop-color="#CDCDCD"/>
<stop offset="0.45857" stop-color="#979797" stop-opacity="0.889943"/>
<stop offset="1" stop-color="#575757" stop-opacity="0.76"/>
</linearGradient>
<linearGradient id="paint2_linear_369_780" x1="28.0218" y1="49.7176" x2="32.5846" y2="70.917" gradientUnits="userSpaceOnUse">
<stop stop-color="#CDCDCD"/>
<stop offset="0.45857" stop-color="#979797" stop-opacity="0.889943"/>
<stop offset="1" stop-color="#575757" stop-opacity="0.76"/>
</linearGradient>
<linearGradient id="paint3_linear_369_780" x1="36.3874" y1="53.0665" x2="39.6465" y2="68.2089" gradientUnits="userSpaceOnUse">
<stop stop-color="#CDCDCD"/>
<stop offset="0.45857" stop-color="#979797" stop-opacity="0.889943"/>
<stop offset="1" stop-color="#575757" stop-opacity="0.76"/>
</linearGradient>
<linearGradient id="paint4_linear_369_780" x1="41.8669" y1="55.4519" x2="45.126" y2="70.5944" gradientUnits="userSpaceOnUse">
<stop stop-color="#CDCDCD"/>
<stop offset="0.45857" stop-color="#979797" stop-opacity="0.889943"/>
<stop offset="1" stop-color="#575757" stop-opacity="0.76"/>
</linearGradient>
<linearGradient id="paint5_linear_369_780" x1="119.282" y1="40.2248" x2="111.84" y2="79.6437" gradientUnits="userSpaceOnUse">
<stop stop-color="#DCDCDC"/>
<stop offset="1" stop-color="#FFFEFE"/>
</linearGradient>
<linearGradient id="paint6_linear_369_780" x1="110.231" y1="50.8735" x2="107.65" y2="78.5512" gradientUnits="userSpaceOnUse">
<stop stop-color="white"/>
<stop offset="0.729167" stop-color="#B0B0B0" stop-opacity="0.889943"/>
<stop offset="1" stop-color="#787676" stop-opacity="0.76"/>
</linearGradient>
<linearGradient id="paint7_linear_369_780" x1="110.231" y1="50.8735" x2="107.65" y2="78.5512" gradientUnits="userSpaceOnUse">
<stop stop-color="white"/>
<stop offset="0.729167" stop-color="#B0B0B0" stop-opacity="0.889943"/>
<stop offset="1" stop-color="#787676" stop-opacity="0.76"/>
</linearGradient>
<linearGradient id="paint8_linear_369_780" x1="110.231" y1="50.8735" x2="107.65" y2="78.5512" gradientUnits="userSpaceOnUse">
<stop stop-color="white"/>
<stop offset="0.729167" stop-color="#B0B0B0" stop-opacity="0.889943"/>
<stop offset="1" stop-color="#787676" stop-opacity="0.76"/>
</linearGradient>
<linearGradient id="paint9_linear_369_780" x1="110.231" y1="50.8735" x2="107.65" y2="78.5512" gradientUnits="userSpaceOnUse">
<stop stop-color="white"/>
<stop offset="0.729167" stop-color="#B0B0B0" stop-opacity="0.889943"/>
<stop offset="1" stop-color="#787676" stop-opacity="0.76"/>
</linearGradient>
<linearGradient id="paint10_linear_369_780" x1="128.187" y1="43.242" x2="125.38" y2="73.3265" gradientUnits="userSpaceOnUse">
<stop stop-color="white"/>
<stop offset="0.729167" stop-color="#B0B0B0" stop-opacity="0.889943"/>
<stop offset="1" stop-color="#787676" stop-opacity="0.76"/>
</linearGradient>
<linearGradient id="paint11_linear_369_780" x1="88.1749" y1="29.302" x2="88.1749" y2="84.9587" gradientUnits="userSpaceOnUse">
<stop stop-color="#CDCDCD"/>
<stop offset="0.45857" stop-color="#979797" stop-opacity="0.889943"/>
<stop offset="1" stop-color="#AFAFAF" stop-opacity="0.76"/>
</linearGradient>
<linearGradient id="paint12_linear_369_780" x1="86.3389" y1="43.9161" x2="88.2424" y2="74.9579" gradientUnits="userSpaceOnUse">
<stop stop-color="#EAE4E4" stop-opacity="0.88"/>
<stop offset="1" stop-color="white"/>
</linearGradient>
</defs>
</svg>
