<svg width="34" height="34" viewBox="0 0 34 34" fill="none" xmlns="http://www.w3.org/2000/svg">
<circle cx="17" cy="17" r="17" fill="#FFFAFA"/>
<path d="M9.17672 16.3678C11.4262 18.6173 15.0985 18.6173 17.348 16.3678C19.5975 14.1183 19.5975 10.446 17.348 8.19653C15.0985 5.94702 11.4262 5.94702 9.17672 8.19653C6.92721 10.446 6.92721 14.0991 9.17672 16.3678Z" fill="#FFFAFA"/>
<path d="M8.83099 16.714C6.38921 14.2722 6.38921 10.2731 8.83099 7.83133C11.2728 5.38956 15.2719 5.38956 17.7137 7.83133C19.9247 10.0424 20.1362 13.4839 18.3674 15.945L20.5977 18.1752L19.1749 19.598L16.9446 17.3677C14.4836 19.1366 11.0228 18.9251 8.83099 16.714ZM17.0023 16.0026C19.0595 13.9454 19.0595 10.6 17.0023 8.54272C14.945 6.48547 11.5996 6.48547 9.54237 8.54272C7.48512 10.6 7.48512 13.9454 9.54237 16.0026C11.5804 18.0599 14.945 18.0599 17.0023 16.0026Z" fill="url(#paint0_linear_688_1221)"/>
<path d="M24.693 26.7118C25.0776 27.0964 25.712 27.0964 26.1158 26.7118L27.7116 25.116C28.0961 24.7315 28.0961 24.097 27.7116 23.6933L22.1167 18.0983C21.7321 17.7138 21.0977 17.7138 20.6939 18.0983L19.0981 19.6941C18.7136 20.0787 18.7136 20.7132 19.0981 21.1169L24.693 26.7118Z" fill="url(#paint1_linear_688_1221)"/>
<path d="M27.6924 23.6933L24.693 26.7119L19.0789 21.0977L22.0974 18.0984L27.6924 23.6933Z" fill="url(#paint2_linear_688_1221)"/>
<defs>
<linearGradient id="paint0_linear_688_1221" x1="13.7987" y1="6" x2="13.7987" y2="16.983" gradientUnits="userSpaceOnUse">
<stop stop-color="#ADD7FF"/>
<stop offset="1" stop-color="#1370D7"/>
</linearGradient>
<linearGradient id="paint1_linear_688_1221" x1="23.4048" y1="17.8099" x2="23.4048" y2="25.2329" gradientUnits="userSpaceOnUse">
<stop stop-color="#ADD7FF"/>
<stop offset="1" stop-color="#1370D7"/>
</linearGradient>
<linearGradient id="paint2_linear_688_1221" x1="23.3856" y1="18.0984" x2="23.3856" y2="26.7119" gradientUnits="userSpaceOnUse">
<stop stop-color="#4A43D1"/>
<stop offset="1" stop-color="#06002D"/>
</linearGradient>
</defs>
</svg>
