<svg width="98" height="98" viewBox="0 0 98 98" fill="none" xmlns="http://www.w3.org/2000/svg">
<path opacity="0.1" d="M49 98C76.062 98 98 76.062 98 49C98 21.938 76.062 0 49 0C21.938 0 0 21.938 0 49C0 76.062 21.938 98 49 98Z" fill="#BEF3FF"/>
<path d="M45.4395 20.9892C47.5923 19.3402 50.5836 19.3402 52.7364 20.9892L54.0143 21.968C55.2864 22.9423 56.8953 23.3674 58.4826 23.1485L59.8865 22.9548C62.6173 22.5782 65.2534 24.1107 66.2772 26.6702L66.8161 28.0173C67.4259 29.5419 68.634 30.75 70.1586 31.3598L71.5057 31.8987C74.0652 32.9225 75.5977 35.5586 75.2211 38.2894L75.0274 39.6933C74.8085 41.2806 75.2335 42.8895 76.2079 44.1615L77.1867 45.4395C78.8357 47.5923 78.8357 50.5836 77.1867 52.7364L76.2079 54.0143C75.2335 55.2864 74.8085 56.8953 75.0274 58.4826L75.2211 59.8865C75.5977 62.6173 74.0652 65.2534 71.5057 66.2772L70.1586 66.8161C68.634 67.4259 67.4259 68.634 66.8161 70.1586L66.2772 71.5057C65.2534 74.0652 62.6173 75.5977 59.8865 75.2211L58.4826 75.0274C56.8953 74.8085 55.2864 75.2336 54.0143 76.2079L52.7364 77.1867C50.5836 78.8357 47.5923 78.8357 45.4395 77.1867L44.1615 76.2079C42.8895 75.2336 41.2806 74.8085 39.6933 75.0274L38.2893 75.2211C35.5585 75.5977 32.9225 74.0652 31.8987 71.5057L31.3598 70.1586C30.75 68.634 29.5419 67.4259 28.0173 66.8161L26.6702 66.2772C24.1107 65.2534 22.5781 62.6173 22.9548 59.8865L23.1485 58.4826C23.3674 56.8953 22.9423 55.2864 21.968 54.0143L20.9891 52.7364C19.3402 50.5836 19.3402 47.5923 20.9891 45.4395L21.968 44.1615C22.9423 42.8895 23.3674 41.2806 23.1485 39.6933L22.9548 38.2894C22.5781 35.5586 24.1107 32.9225 26.6702 31.8987L28.0173 31.3598C29.5419 30.75 30.75 29.5419 31.3598 28.0173L31.8987 26.6702C32.9225 24.1107 35.5585 22.5782 38.2893 22.9548L39.6932 23.1485C41.2806 23.3674 42.8895 22.9423 44.1615 21.968L45.4395 20.9892Z" fill="#1D84EF"/>
<path d="M64.6832 35.2591L44.6761 55.2662L36.4378 47.028L32.3187 51.1471L44.6761 63.5044L68.8023 39.3782L64.6832 35.2591Z" fill="white"/>
</svg>
